<?xml version="1.0" encoding="UTF-8" standalone="no"?>
<svg
   xmlns:dc="http://purl.org/dc/elements/1.1/"
   xmlns:cc="http://creativecommons.org/ns#"
   xmlns:rdf="http://www.w3.org/1999/02/22-rdf-syntax-ns#"
   xmlns:svg="http://www.w3.org/2000/svg"
   xmlns="http://www.w3.org/2000/svg"
   xmlns:sodipodi="http://sodipodi.sourceforge.net/DTD/sodipodi-0.dtd"
   xmlns:inkscape="http://www.inkscape.org/namespaces/inkscape"
   inkscape:version="1.0beta2 (2b71d25, 2019-12-03)"
   sodipodi:docname="ask-for-permission-4.svg"
   version="1.1"
   id="svg2"
   viewBox="0 0 140 105"
   height="105"
   width="140">
  <metadata
     id="metadata3523">
    <rdf:RDF>
      <cc:Work
         rdf:about="">
        <dc:format>image/svg+xml</dc:format>
        <dc:type
           rdf:resource="http://purl.org/dc/dcmitype/StillImage" />
        <dc:title></dc:title>
      </cc:Work>
    </rdf:RDF>
  </metadata>
  <defs
     id="defs3521">
    <rect
       id="rect5220"
       height="46.201847"
       width="166.32666"
       y="861.82007"
       x="179.0601" />
    <rect
       id="rect5210"
       height="45.17514"
       width="186.34744"
       y="856.68652"
       x="189.32716" />
    <rect
       id="rect5194"
       height="44.661785"
       width="171.46019"
       y="857.19989"
       x="1.9530156" />
  </defs>
  <sodipodi:namedview
     inkscape:current-layer="layer1"
     inkscape:window-maximized="0"
     inkscape:window-y="23"
     inkscape:window-x="0"
     inkscape:cy="117.71"
     inkscape:cx="429.12788"
     inkscape:zoom="1.9479741"
     showgrid="false"
     id="namedview3519"
     inkscape:window-height="1035"
     inkscape:window-width="1920"
     inkscape:pageshadow="2"
     inkscape:pageopacity="0"
     guidetolerance="10"
     gridtolerance="10"
     objecttolerance="10"
     borderopacity="1"
     inkscape:document-rotation="0"
     bordercolor="#666666"
     pagecolor="#ffffff" />
  <g
     transform="translate(6.774,-768.903)"
     id="layer1">
    <g
       transform="matrix(0.74332338,0,0,0.69840499,-217.28514,205.68641)"
       id="g5229">
      <g
         id="g4747"
         transform="matrix(2.66667,0,0,2.66667,359.137,809.336)">
        <g
           id="g4749">
          <path
             inkscape:connector-curvature="0"
             id="path4751"
             d="m 29.5,30 h -10 C 19.2,30 19,29.8 19,29.5 v -8 C 19,21.2 19.2,21 19.5,21 h 10 c 0.3,0 0.5,0.2 0.5,0.5 v 8 C 30,29.8 29.8,30 29.5,30 Z M 20,29 h 9 v -7 h -9 z" />
        </g>
        <g
           id="g4753">
          <path
             inkscape:connector-curvature="0"
             id="path4755"
             d="M 24.5,27 C 24.2,27 24,26.8 24,26.5 v -2 c 0,-0.3 0.2,-0.5 0.5,-0.5 0.3,0 0.5,0.2 0.5,0.5 v 2 c 0,0.3 -0.2,0.5 -0.5,0.5 z" />
        </g>
        <g
           id="g4757">
          <g
             id="g4759">
            <path
               inkscape:connector-curvature="0"
               id="path4761"
               d="M 0.5,30 H 0.4 C 0.1,29.9 0,29.7 0,29.4 l 0.7,-3 C 1,25 2.1,23.8 3.4,23.4 l 5.9,-1.9 c 1.4,-0.6 2,-2.9 2.1,-3.7 C 10.5,16.9 9.6,15.6 9.6,14.4 9.6,13.9 9.4,13.7 9.3,13.6 9.1,13.6 9,13.5 9,13.3 9,13.2 8.4,11.6 8.4,10.6 V 10.5 C 8.5,10.2 8.7,9.8 9,9.6 V 6 c 0,-2.5 2.1,-6 5.9,-6 3.6,0 4.6,1.9 4.7,2.8 0.6,0.3 1.4,1 1.4,3.2 v 3.6 c 0.3,0.2 0.5,0.5 0.5,0.9 0,1.1 -0.6,2.7 -0.6,2.7 -0.1,0.2 -0.2,0.3 -0.3,0.3 -0.1,0 -0.2,0.2 -0.2,0.8 0,1.1 -0.4,1.7 -0.7,2 l -0.1,0.1 c -0.1,0.2 -0.5,0.3 -0.7,0.2 -0.2,-0.1 -0.3,-0.5 -0.2,-0.7 0,-0.1 0.1,-0.1 0.1,-0.2 0.2,-0.3 0.5,-0.6 0.5,-1.4 0,-0.9 0.4,-1.4 0.7,-1.6 0.2,-0.5 0.5,-1.5 0.5,-2.2 V 10.4 C 20.2,10.4 20,10.2 20,9.9 V 6 C 20,4.1 19.4,3.8 19.1,3.6 19,3.5 18.7,3.4 18.7,3.1 V 2.9 C 18.6,2.4 17.9,1 14.9,1 11.9,1 10,3.9 10,6 v 4 c 0,0.3 -0.2,0.5 -0.5,0.5 0,0 -0.1,0.1 -0.1,0.2 0,0.6 0.3,1.6 0.5,2.1 0.3,0.2 0.7,0.7 0.7,1.6 0,0.9 0.8,2.1 1.6,2.8 0.1,0.1 0.2,0.2 0.2,0.4 0,0.8 -0.7,4 -2.7,4.9 l -5.9,1.9 c -1,0.4 -1.8,1.2 -2,2.3 l -0.7,3 C 0.9,29.8 0.7,30 0.5,30 Z" />
          </g>
        </g>
        <g
           id="g4763">
          <path
             inkscape:connector-curvature="0"
             id="path4765"
             d="M 28.5,22 C 28.2,22 28,21.8 28,21.5 v -1 C 28,18.6 26.4,17 24.5,17 22.6,17 21,18.6 21,20.5 v 1 C 21,21.8 20.8,22 20.5,22 20.2,22 20,21.8 20,21.5 v -1 C 20,18 22,16 24.5,16 27,16 29,18 29,20.5 v 1 c 0,0.3 -0.2,0.5 -0.5,0.5 z" />
        </g>
        <g
           id="g4767">
          <path
             inkscape:connector-curvature="0"
             id="path4769"
             d="M 24.5,26 C 23.7,26 23,25.3 23,24.5 23,23.7 23.7,23 24.5,23 c 0.8,0 1.5,0.7 1.5,1.5 0,0.8 -0.7,1.5 -1.5,1.5 z m 0,-2 C 24.2,24 24,24.2 24,24.5 24,24.8 24.2,25 24.5,25 24.8,25 25,24.8 25,24.5 25,24.2 24.8,24 24.5,24 Z" />
        </g>
      </g>
    </g>
    <path
       id="path1862-3-0"
       fill="#231f20"
       d="m -3.4453111,822.89826 c -0.16312,0 -0.49125,0 -0.65625,-0.16406 a 0.79312501,0.79312501 0 0 1 0,-1.14844 L 18.367499,799.11764 -4.1006211,776.81357 a 0.79312501,0.79312501 0 0 1 0,-1.14843 0.79312501,0.79312501 0 0 1 1.14844,0 l 22.9593701,22.96031 c 0.32813,0.32812 0.32813,0.82031 0,1.14844 l -22.9593701,22.95937 c 0,0.165 -0.32813,0.165 -0.49219,0.165 z"
       class="st0"
       inkscape:connector-curvature="0"
       style="fill:#231f20;stroke-width:0.9375" />
    <text
       style="font-size:16px;line-height:1.25;font-family:'.Arial Hebrew Desk Interface';-inkscape-font-specification:'.Arial Hebrew Desk Interface';white-space:pre;shape-inside:url(#rect5210);"
       id="text5208"
       xml:space="preserve" />
    <text
       id="text5216"
       y="867.46692"
       x="214.99487"
       style="font-size:40px;line-height:1.25;font-family:'.Arial Hebrew Desk Interface';-inkscape-font-specification:'.Arial Hebrew Desk Interface'"
       xml:space="preserve"><tspan
         y="867.46692"
         x="214.99487"
         id="tspan5214"
         sodipodi:role="line" /></text>
    <text
       id="text5251"
       y="849.49963"
       x="8.1132832"
       style="font-style:normal;font-variant:normal;font-weight:normal;font-stretch:normal;font-size:16px;line-height:1.25;font-family:sans-serif;-inkscape-font-specification:'sans-serif Normal';font-variant-ligatures:normal;font-variant-caps:normal;font-variant-numeric:normal;font-variant-east-asian:normal"
       xml:space="preserve"><tspan
         y="849.49963"
         x="8.1132832"
         id="tspan5249"
         sodipodi:role="line">4. Subscription</tspan><tspan
         id="tspan5255"
         y="869.49963"
         x="8.1132832"
         sodipodi:role="line"> received</tspan></text>
  </g>
  <style
     id="style9651">.st0{fill:#231f20}</style>
  <style
     id="style11289">.st0{fill:#231f20}</style>
</svg>
