<?xml version="1.0" encoding="UTF-8" standalone="no"?>
<svg
   xmlns:dc="http://purl.org/dc/elements/1.1/"
   xmlns:cc="http://creativecommons.org/ns#"
   xmlns:rdf="http://www.w3.org/1999/02/22-rdf-syntax-ns#"
   xmlns:svg="http://www.w3.org/2000/svg"
   xmlns="http://www.w3.org/2000/svg"
   xmlns:sodipodi="http://sodipodi.sourceforge.net/DTD/sodipodi-0.dtd"
   xmlns:inkscape="http://www.inkscape.org/namespaces/inkscape"
   inkscape:version="1.0beta2 (2b71d25, 2019-12-03)"
   sodipodi:docname="ask-for-permission-2.svg"
   version="1.1"
   id="svg2"
   viewBox="0 0 165 105"
   height="105"
   width="165">
  <metadata
     id="metadata3523">
    <rdf:RDF>
      <cc:Work
         rdf:about="">
        <dc:format>image/svg+xml</dc:format>
        <dc:type
           rdf:resource="http://purl.org/dc/dcmitype/StillImage" />
        <dc:title></dc:title>
      </cc:Work>
    </rdf:RDF>
  </metadata>
  <defs
     id="defs3521">
    <rect
       id="rect5220"
       height="46.201847"
       width="166.32666"
       y="861.82007"
       x="179.0601" />
    <rect
       id="rect5210"
       height="45.17514"
       width="186.34744"
       y="856.68652"
       x="189.32716" />
    <rect
       id="rect5194"
       height="44.661785"
       width="171.46019"
       y="857.19989"
       x="1.9530156" />
  </defs>
  <sodipodi:namedview
     inkscape:current-layer="layer1"
     inkscape:window-maximized="0"
     inkscape:window-y="23"
     inkscape:window-x="0"
     inkscape:cy="117.71"
     inkscape:cx="429.12788"
     inkscape:zoom="1.9479741"
     showgrid="false"
     id="namedview3519"
     inkscape:window-height="1035"
     inkscape:window-width="1920"
     inkscape:pageshadow="2"
     inkscape:pageopacity="0"
     guidetolerance="10"
     gridtolerance="10"
     objecttolerance="10"
     borderopacity="1"
     inkscape:document-rotation="0"
     bordercolor="#666666"
     pagecolor="#ffffff" />
  <g
     transform="translate(6.774,-768.903)"
     id="layer1">
    <g
       transform="translate(-26.245209,-50.212424)"
       id="g5207">
      <g
         id="g4380"
         transform="matrix(3,0,0,3,87.956,804.186)">
        <g
           id="g4382">
          <path
             inkscape:connector-curvature="0"
             id="path4384"
             d="m 15,24.3 c -0.6,0 -1.2,-0.2 -1.8,-0.6 -0.4,-0.2 -3.5,-2.4 -6,-4.5 -0.4,-0.3 -1,-0.9 -1.5,-1.5 l -1,-1 C 4.5,16.5 4.5,16.2 4.6,16 4.8,15.8 5.1,15.8 5.3,15.9 l 1.1,1.1 1.4,1.4 c 2.5,2.1 5.6,4.2 6,4.5 0.4,0.3 0.8,0.4 1.2,0.4 0.3,0 1,0 1,-0.2 0.1,-0.2 0.2,-0.3 0.4,-0.3 0.2,0 0.3,0 0.5,0.1 0.1,0.1 0.3,0.3 0.7,0.1 0.5,-0.2 0.9,-0.8 1,-1.3 0,-0.2 0.1,-0.4 0.3,-0.4 0.2,-0.1 0.4,0 0.5,0.1 0.2,0.2 0.6,0.1 1,0 0.4,-0.2 0.8,-0.6 0.7,-1 0,-0.2 0.1,-0.4 0.2,-0.5 0.2,-0.1 0.4,-0.1 0.5,0 0.3,0.2 0.9,0.2 1.2,-0.1 0.2,-0.2 0.3,-0.4 0.1,-0.8 -0.5,-1 -3,-3.1 -4.9,-4.8 -1,-0.9 -2,-1.7 -2.7,-2.4 -0.3,0.1 -0.5,0.3 -0.6,0.4 -0.3,0.2 -0.5,0.4 -1,0.5 -0.9,1.2 -2,1.5 -3.4,1 -0.7,-0.2 -0.9,-0.7 -1,-1 -0.3,-1.2 0.9,-2.9 1.8,-3.8 2.1,-2.1 3.6,-2.9 6.6,-1.6 2.5,1.1 4.5,2 4.5,2 0.3,0.1 0.4,0.4 0.3,0.7 -0.1,0.3 -0.4,0.4 -0.7,0.3 0,0 -2,-0.9 -4.5,-2 -2.2,-1 -3.3,-0.7 -5.4,1.4 -0.8,0.8 -1.7,2.2 -1.5,2.9 0,0.1 0.1,0.2 0.3,0.3 1.4,0.4 2,-0.1 2.4,-0.8 0.1,-0.1 0.2,-0.2 0.4,-0.2 0.3,0 0.4,-0.1 0.7,-0.3 0.3,-0.2 0.6,-0.4 1.2,-0.7 0.2,-0.1 0.4,0 0.5,0.1 0.7,0.7 1.8,1.6 2.9,2.5 2.3,1.9 4.6,3.9 5.2,5.1 0.4,0.7 0.2,1.5 -0.3,2 -0.5,0.4 -1.1,0.5 -1.7,0.4 -0.2,0.5 -0.6,1 -1.2,1.3 -0.5,0.2 -1,0.3 -1.4,0.2 -0.3,0.6 -0.8,1.2 -1.4,1.5 -0.4,0.2 -0.9,0.2 -1.3,0 -0.7,0.2 -1.4,0.3 -1.9,0.3 z" />
        </g>
        <g
           id="g4386">
          <path
             inkscape:connector-curvature="0"
             id="path4388"
             d="m 12.5,8.8 h -6 C 6.2,8.8 6,8.5 6,8.3 6,8.1 6.2,7.8 6.5,7.8 h 6 c 0.3,0 0.5,0.2 0.5,0.5 0,0.3 -0.2,0.5 -0.5,0.5 z" />
        </g>
        <g
           id="g4390">
          <path
             inkscape:connector-curvature="0"
             id="path4392"
             d="m 23.5,19.3 c -0.2,0 -0.3,-0.1 -0.4,-0.2 -0.2,-0.2 -0.1,-0.5 0.1,-0.7 l 1.5,-1 c 0.2,-0.2 0.5,-0.1 0.7,0.1 0.2,0.2 0.1,0.5 -0.1,0.7 l -1.5,1 c -0.1,0 -0.2,0.1 -0.3,0.1 z" />
        </g>
        <g
           id="g4394">
          <path
             inkscape:connector-curvature="0"
             id="path4396"
             d="m 21.5,20.8 c -0.1,0 -0.2,0 -0.3,-0.1 -0.7,-0.5 -3.7,-3.7 -4.1,-4 -0.2,-0.2 -0.2,-0.5 0,-0.7 0.2,-0.2 0.5,-0.2 0.7,0 0.9,1 3.4,3.6 3.9,4 0.2,0.2 0.3,0.5 0.1,0.7 0,0 -0.2,0.1 -0.3,0.1 z" />
        </g>
        <g
           id="g4398">
          <path
             inkscape:connector-curvature="0"
             id="path4400"
             d="m 19,22.3 c -0.1,0 -0.2,0 -0.3,-0.1 -0.9,-0.7 -3.2,-3.2 -3.6,-3.6 -0.2,-0.2 -0.2,-0.5 0,-0.7 0.2,-0.2 0.5,-0.2 0.7,0 0.4,0.5 2.7,2.8 3.4,3.4 0.2,0.2 0.3,0.5 0.1,0.7 0,0.2 -0.2,0.3 -0.3,0.3 z" />
        </g>
        <g
           id="g4402">
          <path
             inkscape:connector-curvature="0"
             id="path4404"
             d="m 16.5,23.8 c -0.1,0 -0.2,0 -0.3,-0.1 -0.8,-0.7 -2.3,-2.2 -3,-3 -0.2,-0.2 -0.2,-0.5 0,-0.7 0.2,-0.2 0.5,-0.2 0.7,0 0.8,0.8 2.2,2.3 3,3 0.2,0.2 0.2,0.5 0.1,0.7 -0.2,0 -0.4,0.1 -0.5,0.1 z" />
        </g>
        <g
           id="g4406">
          <path
             inkscape:connector-curvature="0"
             id="path4408"
             d="M 0.5,17.8 C 0.2,17.8 0,17.6 0,17.3 V 6.3 C 0,6 0.2,5.8 0.5,5.8 1.4,5.8 5.8,5.9 6.9,6.9 7,7 7,7.1 7,7.3 6.7,10.5 5.1,17.1 5,17.4 4.9,17.6 4.7,17.8 4.5,17.8 Z M 1,6.8 v 10 H 4.1 C 4.4,15.4 5.7,10.3 6,7.5 5.2,7 2.8,6.8 1,6.8 Z" />
        </g>
        <g
           id="g4410">
          <path
             inkscape:connector-curvature="0"
             id="path4412"
             d="m 29.5,18.8 h -4 C 25.3,18.8 25.1,18.6 25,18.4 24.5,16.7 21.9,9.8 21.1,8.5 21,8.4 21,8.2 21,8.1 21,8 21.2,7.8 21.3,7.8 c 0.1,0 3.3,-1 8.2,-1 0.3,0 0.5,0.2 0.5,0.5 v 11 c 0,0.2 -0.2,0.5 -0.5,0.5 z m -3.6,-1 H 29 v -10 c -3.3,0 -5.7,0.5 -6.8,0.8 1.1,2 3.1,7.3 3.7,9.2 z" />
        </g>
      </g>
    </g>
    <path
       style="stroke-width:0.9375"
       inkscape:connector-curvature="0"
       class="st0"
       d="m -3.573649,823.47578 c -0.16312,0 -0.49125,0 -0.65625,-0.16406 a 0.79312499,0.79312499 0 0 1 0,-1.14844 l 22.46907,-22.46812 -22.46813,-22.30407 a 0.79312499,0.79312499 0 0 1 0,-1.14843 0.79312499,0.79312499 0 0 1 1.14844,0 l 22.95937,22.96031 c 0.32813,0.32812 0.32813,0.82031 0,1.14844 l -22.95937,22.95937 c 0,0.165 -0.32813,0.165 -0.49219,0.165 z"
       fill="#231f20"
       id="path1862" />
    <text
       style="font-size:16px;line-height:1.25;font-family:'.Arial Hebrew Desk Interface';-inkscape-font-specification:'.Arial Hebrew Desk Interface';white-space:pre;shape-inside:url(#rect5210);"
       id="text5208"
       xml:space="preserve" />
    <text
       id="text5216"
       y="867.46692"
       x="214.99487"
       style="font-size:40px;line-height:1.25;font-family:'.Arial Hebrew Desk Interface';-inkscape-font-specification:'.Arial Hebrew Desk Interface'"
       xml:space="preserve"><tspan
         y="867.46692"
         x="214.99487"
         id="tspan5214"
         sodipodi:role="line" /></text>
    <text
       transform="translate(-152.97945,-32.341292)"
       style="font-style:normal;font-variant:normal;font-weight:normal;font-stretch:normal;font-size:16px;line-height:1.25;font-family:sans-serif;-inkscape-font-specification:'sans-serif Normal';font-variant-ligatures:normal;font-variant-caps:normal;font-variant-numeric:normal;font-variant-east-asian:normal;white-space:pre;shape-inside:url(#rect5220);"
       id="text5218"
       xml:space="preserve"><tspan
         sodipodi:role="line"
         x="179.06055"
         y="876.4176"><tspan
           style="font-style:normal;font-variant:normal;font-weight:normal;font-stretch:normal;font-size:16px;font-family:sans-serif;-inkscape-font-specification:'sans-serif Normal';font-variant-ligatures:normal;font-variant-caps:normal;font-variant-numeric:normal;font-variant-east-asian:normal">2. </tspan><tspan
           style="font-style:normal;font-variant:normal;font-weight:normal;font-stretch:normal;font-size:16px;font-family:sans-serif;-inkscape-font-specification:'sans-serif Normal';font-variant-ligatures:normal;font-variant-caps:normal;font-variant-numeric:normal;font-variant-east-asian:normal">User accept </tspan><tspan
           dx="5.625" /></tspan><tspan
         sodipodi:role="line"
         x="179.06055"
         y="896.4176"><tspan
           style="font-style:normal;font-variant:normal;font-weight:normal;font-stretch:normal;font-size:16px;font-family:sans-serif;-inkscape-font-specification:'sans-serif Normal';font-variant-ligatures:normal;font-variant-caps:normal;font-variant-numeric:normal;font-variant-east-asian:normal">prompt</tspan></tspan></text>
  </g>
  <style
     id="style9651">.st0{fill:#231f20}</style>
  <style
     id="style11289">.st0{fill:#231f20}</style>
</svg>
