<?xml version="1.0" encoding="UTF-8" standalone="no"?>
<svg
   xmlns:dc="http://purl.org/dc/elements/1.1/"
   xmlns:cc="http://creativecommons.org/ns#"
   xmlns:rdf="http://www.w3.org/1999/02/22-rdf-syntax-ns#"
   xmlns:svg="http://www.w3.org/2000/svg"
   xmlns="http://www.w3.org/2000/svg"
   xmlns:sodipodi="http://sodipodi.sourceforge.net/DTD/sodipodi-0.dtd"
   xmlns:inkscape="http://www.inkscape.org/namespaces/inkscape"
   inkscape:version="1.0beta2 (2b71d25, 2019-12-03)"
   sodipodi:docname="send-notification-5.svg"
   id="svg1894"
   version="1.1"
   height="160"
   width="160"
   viewBox="0 0 160.00006 160.0001">
  <metadata
     id="metadata1900">
    <rdf:RDF>
      <cc:Work
         rdf:about="">
        <dc:format>image/svg+xml</dc:format>
        <dc:type
           rdf:resource="http://purl.org/dc/dcmitype/StillImage" />
        <dc:title></dc:title>
      </cc:Work>
    </rdf:RDF>
  </metadata>
  <defs
     id="defs1898" />
  <sodipodi:namedview
     inkscape:current-layer="svg1894"
     inkscape:window-maximized="0"
     inkscape:window-y="23"
     inkscape:window-x="0"
     inkscape:cy="80"
     inkscape:cx="400"
     inkscape:zoom="2.15125"
     showgrid="false"
     id="namedview1896"
     inkscape:window-height="1035"
     inkscape:window-width="1920"
     inkscape:pageshadow="2"
     inkscape:pageopacity="0"
     guidetolerance="10"
     gridtolerance="10"
     objecttolerance="10"
     borderopacity="1"
     inkscape:document-rotation="0"
     bordercolor="#666666"
     pagecolor="#ffffff" />
  <g
     id="g4400"
     transform="matrix(2.2280035,0,0,2.354696,46.806539,8.4549305)">
    <g
       id="g4402">
      <path
         inkscape:connector-curvature="0"
         id="path4404"
         d="M 21.9,27 H 2.1 C 0.9,27 0,26 0,24.9 0,24.6 0.1,24.3 0.2,24 0.8,22.7 3.8,16 3.8,10.5 3.8,5.8 7.5,2 12,2 c 4.5,0 8.2,3.8 8.2,8.5 0,5.4 3,12.2 3.6,13.5 0.1,0.3 0.2,0.6 0.2,0.9 C 24,26 23.1,27 21.9,27 Z M 12,3 C 8,3 4.8,6.4 4.8,10.5 4.8,16 2,22.5 1.1,24.4 1,24.5 1,24.7 1,24.9 1,25.5 1.5,26 2.1,26 H 22 c 0.6,0 1.1,-0.5 1.1,-1.1 0,-0.2 0,-0.3 -0.1,-0.5 C 22.1,22.5 19.3,16 19.3,10.5 19.2,6.4 16,3 12,3 Z" />
    </g>
    <g
       id="g4406">
      <path
         inkscape:connector-curvature="0"
         id="path4408"
         d="M 2.8,24.9 H 2.6 C 2.3,24.8 2.2,24.5 2.3,24.2 3.4,21.8 5.8,15.7 5.8,10.5 5.8,7 8.6,4.1 12,4.1 c 0.3,0 0.5,0.2 0.5,0.5 0,0.3 -0.2,0.5 -0.5,0.5 -2.8,0 -5.2,2.4 -5.2,5.4 0,5.4 -2.5,11.7 -3.6,14.1 -0.1,0.2 -0.2,0.3 -0.4,0.3 z" />
    </g>
    <g
       id="g4410">
      <path
         inkscape:connector-curvature="0"
         id="path4412"
         d="M 12,30 C 9.8,30 8,28.4 8,26.5 8,26.2 8.2,26 8.5,26 8.8,26 9,26.2 9,26.5 c 0,1.4 1.3,2.5 3,2.5 1.7,0 3,-1.1 3,-2.5 0,-0.3 0.2,-0.5 0.5,-0.5 0.3,0 0.5,0.2 0.5,0.5 0,1.9 -1.8,3.5 -4,3.5 z" />
    </g>
    <g
       id="g4422">
      <path
         inkscape:connector-curvature="0"
         id="path4424"
         d="M 14.5,3.5 C 14.2,3.5 14,3.3 14,3 14,1.9 13.1,1 12,1 10.9,1 10,1.9 10,3 10,3.3 9.8,3.5 9.5,3.5 9.2,3.5 9,3.3 9,3 9,1.3 10.3,0 12,0 c 1.7,0 3,1.3 3,3 0,0.3 -0.2,0.5 -0.5,0.5 z" />
    </g>
  </g>
  <text
     id="text5683"
     y="109.42454"
     x="0.52276027"
     style="font-style:normal;font-variant:normal;font-weight:normal;font-stretch:normal;font-size:16px;line-height:1.25;font-family:sans-serif;-inkscape-font-specification:'sans-serif Normal';font-variant-ligatures:normal;font-variant-caps:normal;font-variant-numeric:normal;font-variant-east-asian:normal"
     xml:space="preserve"><tspan
       y="109.42454"
       x="0.52276027"
       id="tspan5681"
       sodipodi:role="line">5. Service worker</tspan><tspan
       id="tspan5685"
       y="129.42453"
       x="0.52276027"
       sodipodi:role="line">displays notification</tspan></text>
</svg>
