<?xml version="1.0" encoding="UTF-8" standalone="no"?>
<svg
   xmlns:dc="http://purl.org/dc/elements/1.1/"
   xmlns:cc="http://creativecommons.org/ns#"
   xmlns:rdf="http://www.w3.org/1999/02/22-rdf-syntax-ns#"
   xmlns:svg="http://www.w3.org/2000/svg"
   xmlns="http://www.w3.org/2000/svg"
   xmlns:sodipodi="http://sodipodi.sourceforge.net/DTD/sodipodi-0.dtd"
   xmlns:inkscape="http://www.inkscape.org/namespaces/inkscape"
   sodipodi:docname="server.svg"
   inkscape:version="1.0beta2 (2b71d25, 2019-12-03)"
   id="svg5295"
   version="1.1"
   viewBox="0 0 26.458333 26.458334"
   height="100"
   width="100">
  <defs
     id="defs5289" />
  <sodipodi:namedview
     inkscape:window-maximized="0"
     inkscape:window-y="26"
     inkscape:window-x="0"
     inkscape:window-height="1054"
     inkscape:window-width="1920"
     units="px"
     showgrid="false"
     inkscape:document-rotation="0"
     inkscape:current-layer="layer1"
     inkscape:document-units="mm"
     inkscape:cy="560"
     inkscape:cx="400"
     inkscape:zoom="0.35"
     inkscape:pageshadow="2"
     inkscape:pageopacity="0.0"
     borderopacity="1.0"
     bordercolor="#666666"
     pagecolor="#ffffff"
     id="base" />
  <metadata
     id="metadata5292">
    <rdf:RDF>
      <cc:Work
         rdf:about="">
        <dc:format>image/svg+xml</dc:format>
        <dc:type
           rdf:resource="http://purl.org/dc/dcmitype/StillImage" />
        <dc:title></dc:title>
      </cc:Work>
    </rdf:RDF>
  </metadata>
  <g
     id="layer1"
     inkscape:groupmode="layer"
     inkscape:label="Warstwa 1">
    <path
       style="stroke-width:0.264583"
       inkscape:connector-curvature="0"
       d="M 22.21933,25.513393 H 5.0743298 c -1.508125,0 -2.778125,-1.27 -2.778125,-2.778125 0,-1.508125 1.27,-2.778125 2.778125,-2.778125 H 22.139955 c 1.508125,0 2.778125,1.27 2.778125,2.778125 0,1.508125 -1.190625,2.778125 -2.69875,2.778125 z m -17.1450002,-4.7625 c -1.11125,0 -1.984375,0.873125 -1.984375,1.984375 0,1.11125 0.9525,1.984375 1.984375,1.984375 H 22.139955 c 1.11125,0 1.984375,-0.873125 1.984375,-1.984375 0,-1.11125 -0.873125,-1.984375 -1.905,-1.984375 z"
       id="path1500" />
    <path
       style="stroke-width:0.264583"
       inkscape:connector-curvature="0"
       d="m 5.5505798,23.132143 c -0.238125,0 -0.396875,-0.15875 -0.396875,-0.396875 0,-0.238125 0.15875,-0.396875 0.396875,-0.396875 0.238125,0 0.396875,0.15875 0.396875,0.396875 0,0.238125 -0.238125,0.396875 -0.396875,0.396875 z m 1.5875,0 c -0.238125,0 -0.396875,-0.15875 -0.396875,-0.396875 0,-0.238125 0.15875,-0.396875 0.396875,-0.396875 0.238125,0 0.396875,0.15875 0.396875,0.396875 0,0.238125 -0.238125,0.396875 -0.396875,0.396875 z M 22.21933,20.750893 H 5.0743298 c -1.508125,0 -2.778125,-1.27 -2.778125,-2.778125 0,-1.508125 1.27,-2.778125 2.778125,-2.778125 H 22.139955 c 1.508125,0 2.778125,1.27 2.778125,2.778125 0,1.508125 -1.190625,2.778125 -2.69875,2.778125 z m -17.1450002,-4.7625 c -1.11125,0 -1.984375,0.873125 -1.984375,1.984375 0,1.11125 0.9525,1.984375 1.984375,1.984375 H 22.139955 c 1.11125,0 1.984375,-0.873125 1.984375,-1.984375 0,-1.11125 -0.873125,-1.984375 -1.905,-1.984375 z"
       id="path1502" />
    <path
       style="stroke-width:0.264583"
       inkscape:connector-curvature="0"
       d="m 5.5505798,18.369643 c -0.238125,0 -0.396875,-0.15875 -0.396875,-0.396875 0,-0.238125 0.15875,-0.396875 0.396875,-0.396875 0.238125,0 0.396875,0.15875 0.396875,0.396875 0,0.238125 -0.15875,0.396875 -0.396875,0.396875 z m 1.5875,0 c -0.238125,0 -0.396875,-0.15875 -0.396875,-0.396875 0,-0.238125 0.15875,-0.396875 0.396875,-0.396875 0.238125,0 0.396875,0.15875 0.396875,0.396875 0,0.238125 -0.238125,0.396875 -0.396875,0.396875 z"
       id="path1504" />
    <circle
       style="stroke-width:0.79375"
       r="0.79374999"
       cy="22.33839"
       cx="22.616211"
       id="circle1506" />
    <circle
       style="stroke-width:0.79375"
       r="0.79374999"
       cy="17.575893"
       cx="22.616211"
       id="circle1508" />
    <path
       style="stroke-width:0.264583"
       inkscape:connector-curvature="0"
       d="M 18.647455,13.607143 H 9.0430798 c -1.74625,0 -3.175,-1.42875 -3.175,-3.175 0,-1.5875001 1.190625,-2.9368751 2.778125,-3.1750001 v -0.15875 c 0,-3.01625 2.3812502,-5.3975 5.3181252,-5.3975 2.38125,0 4.445,1.5875 5.08,3.889375 1.984375,0.238125 3.4925,1.905 3.4925,3.96875 0.07937,2.2225001 -1.74625,4.0481251 -3.889375,4.0481251 z M 9.0430798,8.0508929 c -1.27,0 -2.301875,1.031875 -2.301875,2.3812501 0,1.349375 1.031875,2.38125 2.38125,2.38125 H 18.72683 c 1.74625,0 3.175,-1.42875 3.175,-3.2543751 0,-1.74625 -1.349375,-3.095625 -3.01625,-3.175 -0.15875,0 -0.3175,-0.15875 -0.396875,-0.3175 -0.555625,-2.06375 -2.38125,-3.571875 -4.524375,-3.571875 -2.460625,0 -4.5243752,2.06375 -4.5243752,4.60375 v 0.47625 c 0,0.15875 0,0.238125 -0.07937,0.3175 -0.07937,0.07937 -0.238125,0.15875 -0.3175,0.15875 z"
       id="path1510" />
  </g>
</svg>
