<svg height="480pt" viewBox="0 0 480 480" width="480pt" xmlns="http://www.w3.org/2000/svg"><path d="m472.984375 200.0625-25.601563-3.199219c-5.511718-13.058593-13.445312-24.953125-23.382812-35.0625-4.101562-9.707031-8.964844-19.066406-14.550781-28l23.480469-30.320312c2.464843-3.183594 2.179687-7.703125-.664063-10.550781l-45.203125-45.203126c-2.847656-2.851562-7.371094-3.140624-10.558594-.671874l-30.3125 23.488281c-18.925781-11.921875-39.738281-20.539063-61.550781-25.488281l-4.738281-38.023438c-.484375-4-3.871094-7.0117188-7.902344-7.03125h-64c-4.035156 0-7.4375 3.003906-7.9375 7.007812l-4.734375 38.023438c-21.8125 4.945312-42.628906 13.566406-61.550781 25.488281l-30.3125-23.488281c-3.1875-2.46875-7.710938-2.179688-10.5625.671875l-45.199219 45.199219c-2.84375 2.851562-3.128906 7.371094-.664063 10.554687l23.472657 30.3125c-11.921875 18.941407-20.535157 39.769531-25.472657 61.597657l-38.03125 4.738281c-3.988281.496093-6.9882808 3.875-7.007812 7.894531v64c0 4.035156 3.003906 7.4375 7.007812 7.9375l38.03125 4.734375c4.9375 21.828125 13.550782 42.660156 25.472657 61.601563l-23.472657 30.269531c-2.464843 3.183593-2.179687 7.703125.664063 10.554687l45.199219 45.199219c2.851562 2.851563 7.375 3.140625 10.5625.671875l30.3125-23.488281c18.921875 11.921875 39.738281 20.542969 61.550781 25.488281l4.734375 38.023438c.5 4.003906 3.902344 7.007812 7.9375 7.007812h64c4.035156 0 7.4375-3.003906 7.9375-7.007812l4.734375-38.039063c9.296875-2.144531 18.429687-4.949219 27.328125-8.394531v21.441406c0 17.671875 14.328125 32 32 32s32-14.328125 32-32v-15.457031l.535156.425781c3.1875 2.46875 7.710938 2.179688 10.5625-.671875l45.199219-45.199219c2.84375-2.851562 3.128906-7.371094.664063-10.554687l-23.480469-30.320313c5.574219-8.941406 10.429687-18.3125 14.519531-28.023437 9.914062-10.117188 17.820312-22.019531 23.3125-35.078125l25.597656-3.199219c4.03125-.464844 7.074219-3.867187 7.089844-7.921875v-64c0-4.035156-3.011719-7.441406-7.015625-7.9375zm-197.113281 220.410156c-3.390625.664063-5.972656 3.433594-6.398438 6.863282l-4.535156 36.664062h-49.875l-4.566406-36.664062c-.425782-3.429688-3.007813-6.199219-6.398438-6.863282-23.707031-4.648437-46.242187-13.976562-66.296875-27.441406-2.863281-1.917969-6.628906-1.789062-9.351562.320312l-29.25 22.648438-35.199219-35.199219 22.640625-29.234375c2.105469-2.71875 2.238281-6.480468.328125-9.34375-13.460938-20.054687-22.789062-42.59375-27.441406-66.292968-.664063-3.390626-3.429688-5.972657-6.855469-6.402344l-36.671875-4.589844v-49.875l36.671875-4.566406c3.425781-.429688 6.191406-3.011719 6.855469-6.398438 4.652344-23.703125 13.980468-46.242187 27.441406-66.296875 1.910156-2.863281 1.777344-6.625-.328125-9.34375l-22.640625-29.257812 35.199219-35.199219 29.234375 22.648438c2.722656 2.109374 6.488281 2.238281 9.351562.320312 20.050782-13.464844 42.589844-22.792969 66.292969-27.441406 3.394531-.664063 5.976563-3.433594 6.402344-6.863282l4.582031-36.664062h49.875l4.558594 36.664062c.425781 3.429688 3.007812 6.199219 6.398437 6.863282 23.707031 4.648437 46.242188 13.976562 66.296875 27.441406 2.863282 1.917969 6.628906 1.789062 9.351563-.320312l29.257812-22.648438 35.199219 35.199219-22.640625 29.234375c-2.105469 2.714844-2.242187 6.472656-.335937 9.335937.503906.75.90625 1.597657 1.402343 2.328125-26.035156-13.273437-56.242187-15.765625-84.097656-6.9375-20.84375-13.835937-45.3125-21.195312-70.328125-21.160156-70.691406 0-128 57.308594-128 128s57.308594 128 128 128c25.019531.027344 49.488281-7.347656 70.328125-21.191406 3.199219 1 6.398437 1.816406 9.671875 2.535156v10.65625c-4.417969 0-8 3.582031-8 8v41.265625c-11.625 4.964844-23.734375 8.71875-36.128906 11.207031zm-13.285156-257.152344c-32.75-9.742187-68.070313 2.390626-87.921876 30.199219-19.851562 27.808594-19.851562 65.152344 0 92.960938 19.851563 27.808593 55.171876 39.941406 87.921876 30.199219 8.5 9.050781 18.441406 16.632812 29.414062 22.441406-47.125 24.789062-105.1875 12.976562-138.878906-28.257813s-33.691406-100.492187 0-141.726562 91.753906-53.046875 138.878906-28.257813c-10.972656 5.808594-20.914062 13.390625-29.414062 22.441406zm-11.144532 13.71875c-25.921875 37.972657-25.921875 87.949219 0 125.921876-25.226562 4.601562-50.761718-6.292969-64.894531-27.6875-14.128906-21.390626-14.128906-49.15625 0-70.546876 14.132813-21.394531 39.667969-32.289062 64.894531-27.6875zm84.558594 174.554688c2.65625.191406 5.296875.40625 8 .40625s5.34375-.214844 8-.40625v8.40625h-16zm24 96.40625c0 8.835938-7.164062 16-16 16s-16-7.164062-16-16v-72h32zm56-67.199219-35.199219 35.199219-4.800781-3.6875v-44.3125c0-4.417969-3.582031-8-8-8v-10.65625c9.164062-2.027344 18.035156-5.210938 26.398438-9.472656-.496094.761718-.894532 1.601562-1.398438 2.328125-1.90625 2.863281-1.769531 6.621093.335938 9.335937zm-72-44.800781c-53.019531 0-96-42.980469-96-96s42.980469-96 96-96 96 42.980469 96 96c-.058594 52.996094-43.003906 95.941406-96 96zm120-71.070312-11.257812 1.398437c4.34375-17.285156 4.34375-35.371094 0-52.65625l11.257812 1.398437zm0 0"/><path d="m264 240c.046875 44.164062 35.835938 79.953125 80 80v-16c-35.347656 0-64-28.652344-64-64s28.652344-64 64-64v-16c-44.164062.046875-79.953125 35.835938-80 80zm0 0"/></svg>