<svg height="480pt" viewBox="0 0 480 480.00002" width="480pt" xmlns="http://www.w3.org/2000/svg"><path d="m165.558594 363.320312c-.203125-.261718-.425782-.507812-.664063-.734374-9.085937-8.980469-19.878906-16.054688-31.742187-20.800782 4.121094-3.113281 7.773437-6.800781 10.847656-10.953125 7.425781-10.089843 11.394531-22.304687 11.320312-34.832031-.035156-29.386719-22.695312-53.792969-52-56-26.164062.667969-47.914062 20.363281-51.160156 46.335938-.566406 3.191406-.847656 6.425781-.839844 9.664062-.167968 17.882812 8.03125 34.820312 22.160157 45.785156-11.855469 4.753906-22.644531 11.824219-31.734375 20.800782-.234375.222656-.449219.460937-.648438.710937-19.863281 20.722656-33.074218 46.910156-37.9375 75.199219-2.117187 11.042968-3.175781 22.261718-3.160156 33.503906 0 4.417969 3.582031 8 8 8h190.640625c4.417969 0 8-3.582031 8-8 .015625-11.238281-1.039063-22.457031-3.152344-33.496094-4.867187-28.28125-18.078125-54.460937-37.929687-75.183594zm-98.238282-67.320312c-.003906-2.351562.207032-4.695312.625-7.007812 2.011719-18.234376 17.046876-32.257813 35.375-32.992188 18.390626.761719 33.449219 14.875 35.40625 33.175781.402344 2.253907.597657 4.535157.59375 6.824219.066407 9.109375-2.8125 17.992188-8.199218 25.335938-6.375 9.070312-16.71875 14.523437-27.800782 14.664062-20.949218-1.183594-37.023437-19.042969-36-40zm-51.128906 168c.359375-7.550781 1.257813-15.070312 2.679688-22.496094 4.296875-25.378906 16.164062-48.867187 34.050781-67.375.207031-.207031.40625-.421875.589844-.648437 13.160156-13.394531 31.039062-21.101563 49.808593-21.480469 18.769532.375 36.644532 8.078125 49.808594 21.464844.1875.234375.390625.457031.605469.664062 17.882813 18.515625 29.75 42.007813 34.042969 67.390625 1.421875 7.421875 2.3125 14.933594 2.671875 22.480469zm0 0"/><path d="m303.320312 0c-67.261718 0-128.640624 38.339844-158.152343 98.78125-29.507813 60.445312-21.988281 132.421875 19.375 185.457031-7.859375 18.898438-12.335938 39.035157-13.222657 59.480469-.074218 2.171875.734376 4.277344 2.242188 5.839844s3.585938 2.441406 5.757812 2.441406c.8125-.003906 1.621094-.128906 2.398438-.367188 17.585938-6.1875 34.183594-14.894531 49.273438-25.839843 63.515624 39.179687 144.832031 34.042969 202.914062-12.8125 58.082031-46.859375 80.296875-125.25 55.433594-195.613281-24.859375-70.363282-91.394532-117.398438-166.019532-117.367188zm0 336c-31.382812.058594-62.078124-9.191406-88.207031-26.574219-2.84375-1.894531-6.574219-1.777343-9.289062.292969-11.582031 8.769531-24.128907 16.179688-37.398438 22.089844 1.488281-15.503906 5.75-30.613282 12.589844-44.609375 1.625-2.882813 1.304687-6.464844-.800781-9.015625-47.859375-57.667969-49.28125-140.832032-3.417969-200.101563s126.722656-78.761719 194.554687-46.90625c67.835938 31.859375 104.464844 106.535157 88.140626 179.675781-16.324219 73.144532-81.230469 125.15625-156.171876 125.148438zm0 0"/><path d="m333.113281 45c-29.25-10.320312-61.765625-4.601562-85.738281 15.078125-14.375 11.773437-24.621094 27.828125-29.246094 45.824219-3.316406 12.835937 4.402344 25.929687 17.238282 29.242187 12.835937 3.3125 25.925781-4.40625 29.242187-17.242187 2.113281-8.164063 6.765625-15.445313 13.285156-20.796875 12.320313-9.972657 29.253907-12.023438 43.59375-5.28125 7.996094 3.402343 14.378907 9.746093 17.832031 17.71875 4.882813 10.5 5.300782 22.527343 1.152344 33.335937-4.898437 11.332032-14.175781 20.191406-25.71875 24.5625-.988281.386719-2.039062.578125-3.097656.558594h-8.335938c-13.253906 0-24 10.746094-24 24v51.199219c0 13.253906 10.746094 24 24 24 13.253907 0 24-10.746094 24-24v-30.519531c23.546876-6.707032 43.25-22.886719 54.40625-44.679688 11.152344-21.796875 12.757813-47.242188 4.425782-70.265625-8.730469-24.734375-28.253906-44.148437-53.039063-52.734375zm25.78125 128.800781c-10.480469 12.730469-25.011719 21.484375-41.167969 24.800781-3.726562.757813-6.402343 4.042969-6.398437 7.847657v36.796875c0 4.421875-3.582031 8-8 8s-8-3.578125-8-8v-51.246094c0-4.417969 3.582031-8 8-8h8.359375c3.203125.027344 6.378906-.597656 9.335938-1.832031 15.421874-6.078125 27.773437-18.074219 34.296874-33.3125 5.675782-14.761719 5.210938-31.183594-1.296874-45.597657-5.109376-11.785156-14.566407-21.148437-26.398438-26.144531-19.832031-8.972656-43.023438-6.003906-59.953125 7.679688-9.117187 7.484375-15.625 17.667969-18.589844 29.085937-.878906 3.570313-4.0625 6.097656-7.738281 6.144532-2.484375.007812-4.828125-1.144532-6.335938-3.121094-1.546874-1.96875-2.085937-4.550782-1.449218-6.972656 3.796875-14.71875 12.183594-27.847657 23.9375-37.480469 19.699218-16.132813 46.402344-20.789063 70.398437-12.28125 20.15625 6.964843 36.035157 22.742187 43.121094 42.855469 8.699219 24.074218 4.097656 50.953124-12.121094 70.761718zm0 0"/><path d="m303.320312 272c-13.253906 0-24 10.746094-24 24s10.746094 24 24 24c13.253907 0 24-10.746094 24-24s-10.746093-24-24-24zm0 32c-4.417968 0-8-3.582031-8-8s3.582032-8 8-8c4.417969 0 8 3.582031 8 8s-3.582031 8-8 8zm0 0"/></svg>