<?xml version="1.0" encoding="UTF-8" standalone="no"?>
<svg
   xmlns:dc="http://purl.org/dc/elements/1.1/"
   xmlns:cc="http://creativecommons.org/ns#"
   xmlns:rdf="http://www.w3.org/1999/02/22-rdf-syntax-ns#"
   xmlns:svg="http://www.w3.org/2000/svg"
   xmlns="http://www.w3.org/2000/svg"
   xmlns:sodipodi="http://sodipodi.sourceforge.net/DTD/sodipodi-0.dtd"
   xmlns:inkscape="http://www.inkscape.org/namespaces/inkscape"
   sodipodi:docname="security.svg"
   inkscape:version="1.0beta2 (2b71d25, 2019-12-03)"
   id="svg3603"
   version="1.1"
   viewBox="0 0 26.458333 26.458333"
   height="100"
   width="100">
  <defs
     id="defs3597" />
  <sodipodi:namedview
     inkscape:window-maximized="0"
     inkscape:window-y="26"
     inkscape:window-x="0"
     inkscape:window-height="1054"
     inkscape:window-width="1920"
     width="100px"
     units="px"
     showgrid="false"
     inkscape:document-rotation="0"
     inkscape:current-layer="layer1"
     inkscape:document-units="mm"
     inkscape:cy="560"
     inkscape:cx="400"
     inkscape:zoom="0.35"
     inkscape:pageshadow="2"
     inkscape:pageopacity="0.0"
     borderopacity="1.0"
     bordercolor="#666666"
     pagecolor="#ffffff"
     id="base" />
  <metadata
     id="metadata3600">
    <rdf:RDF>
      <cc:Work
         rdf:about="">
        <dc:format>image/svg+xml</dc:format>
        <dc:type
           rdf:resource="http://purl.org/dc/dcmitype/StillImage" />
        <dc:title></dc:title>
      </cc:Work>
    </rdf:RDF>
  </metadata>
  <g
     id="layer1"
     inkscape:groupmode="layer"
     inkscape:label="Warstwa 1">
    <g
       id="g4749"
       transform="matrix(0.75259353,0,0,0.75259353,2.3182395,2.3182399)">
      <path
         id="path4751"
         d="m 29.5,30 h -10 C 19.2,30 19,29.8 19,29.5 v -8 C 19,21.2 19.2,21 19.5,21 h 10 c 0.3,0 0.5,0.2 0.5,0.5 v 8 C 30,29.8 29.8,30 29.5,30 Z M 20,29 h 9 v -7 h -9 z"
         inkscape:connector-curvature="0" />
    </g>
    <g
       id="g4753"
       transform="matrix(0.75259353,0,0,0.75259353,2.3182395,2.3182399)">
      <path
         id="path4755"
         d="M 24.5,27 C 24.2,27 24,26.8 24,26.5 v -2 c 0,-0.3 0.2,-0.5 0.5,-0.5 0.3,0 0.5,0.2 0.5,0.5 v 2 c 0,0.3 -0.2,0.5 -0.5,0.5 z"
         inkscape:connector-curvature="0" />
    </g>
    <g
       id="g4757"
       transform="matrix(0.75259353,0,0,0.75259353,2.3182395,2.3182399)">
      <g
         id="g4759">
        <path
           id="path4761"
           d="M 0.5,30 H 0.4 C 0.1,29.9 0,29.7 0,29.4 l 0.7,-3 C 1,25 2.1,23.8 3.4,23.4 l 5.9,-1.9 c 1.4,-0.6 2,-2.9 2.1,-3.7 C 10.5,16.9 9.6,15.6 9.6,14.4 9.6,13.9 9.4,13.7 9.3,13.6 9.1,13.6 9,13.5 9,13.3 9,13.2 8.4,11.6 8.4,10.6 V 10.5 C 8.5,10.2 8.7,9.8 9,9.6 V 6 c 0,-2.5 2.1,-6 5.9,-6 3.6,0 4.6,1.9 4.7,2.8 0.6,0.3 1.4,1 1.4,3.2 v 3.6 c 0.3,0.2 0.5,0.5 0.5,0.9 0,1.1 -0.6,2.7 -0.6,2.7 -0.1,0.2 -0.2,0.3 -0.3,0.3 -0.1,0 -0.2,0.2 -0.2,0.8 0,1.1 -0.4,1.7 -0.7,2 l -0.1,0.1 c -0.1,0.2 -0.5,0.3 -0.7,0.2 -0.2,-0.1 -0.3,-0.5 -0.2,-0.7 0,-0.1 0.1,-0.1 0.1,-0.2 0.2,-0.3 0.5,-0.6 0.5,-1.4 0,-0.9 0.4,-1.4 0.7,-1.6 0.2,-0.5 0.5,-1.5 0.5,-2.2 V 10.4 C 20.2,10.4 20,10.2 20,9.9 V 6 C 20,4.1 19.4,3.8 19.1,3.6 19,3.5 18.7,3.4 18.7,3.1 V 2.9 C 18.6,2.4 17.9,1 14.9,1 11.9,1 10,3.9 10,6 v 4 c 0,0.3 -0.2,0.5 -0.5,0.5 0,0 -0.1,0.1 -0.1,0.2 0,0.6 0.3,1.6 0.5,2.1 0.3,0.2 0.7,0.7 0.7,1.6 0,0.9 0.8,2.1 1.6,2.8 0.1,0.1 0.2,0.2 0.2,0.4 0,0.8 -0.7,4 -2.7,4.9 l -5.9,1.9 c -1,0.4 -1.8,1.2 -2,2.3 l -0.7,3 C 0.9,29.8 0.7,30 0.5,30 Z"
           inkscape:connector-curvature="0" />
      </g>
    </g>
    <g
       id="g4763"
       transform="matrix(0.75259353,0,0,0.75259353,2.3182395,2.3182399)">
      <path
         id="path4765"
         d="M 28.5,22 C 28.2,22 28,21.8 28,21.5 v -1 C 28,18.6 26.4,17 24.5,17 22.6,17 21,18.6 21,20.5 v 1 C 21,21.8 20.8,22 20.5,22 20.2,22 20,21.8 20,21.5 v -1 C 20,18 22,16 24.5,16 27,16 29,18 29,20.5 v 1 c 0,0.3 -0.2,0.5 -0.5,0.5 z"
         inkscape:connector-curvature="0" />
    </g>
    <g
       id="g4767"
       transform="matrix(0.75259353,0,0,0.75259353,2.3182395,2.3182399)">
      <path
         id="path4769"
         d="M 24.5,26 C 23.7,26 23,25.3 23,24.5 23,23.7 23.7,23 24.5,23 c 0.8,0 1.5,0.7 1.5,1.5 0,0.8 -0.7,1.5 -1.5,1.5 z m 0,-2 C 24.2,24 24,24.2 24,24.5 24,24.8 24.2,25 24.5,25 24.8,25 25,24.8 25,24.5 25,24.2 24.8,24 24.5,24 Z"
         inkscape:connector-curvature="0" />
    </g>
  </g>
</svg>
