<?xml version="1.0" encoding="UTF-8" standalone="no"?>
<svg
   xmlns:dc="http://purl.org/dc/elements/1.1/"
   xmlns:cc="http://creativecommons.org/ns#"
   xmlns:rdf="http://www.w3.org/1999/02/22-rdf-syntax-ns#"
   xmlns:svg="http://www.w3.org/2000/svg"
   xmlns="http://www.w3.org/2000/svg"
   xmlns:sodipodi="http://sodipodi.sourceforge.net/DTD/sodipodi-0.dtd"
   xmlns:inkscape="http://www.inkscape.org/namespaces/inkscape"
   viewBox="0 0 800.00029 170.00009"
   width="800"
   height="170"
   version="1.1"
   id="svg1894"
   sodipodi:docname="send-notification3.svg"
   inkscape:version="1.0beta2 (2b71d25, 2019-12-03)">
  <metadata
     id="metadata1900">
    <rdf:RDF>
      <cc:Work
         rdf:about="">
        <dc:format>image/svg+xml</dc:format>
        <dc:type
           rdf:resource="http://purl.org/dc/dcmitype/StillImage" />
        <dc:title></dc:title>
      </cc:Work>
    </rdf:RDF>
  </metadata>
  <defs
     id="defs1898" />
  <sodipodi:namedview
     pagecolor="#ffffff"
     bordercolor="#666666"
     inkscape:document-rotation="0"
     borderopacity="1"
     objecttolerance="10"
     gridtolerance="10"
     guidetolerance="10"
     inkscape:pageopacity="0"
     inkscape:pageshadow="2"
     inkscape:window-width="1920"
     inkscape:window-height="1080"
     id="namedview1896"
     showgrid="false"
     inkscape:zoom="1.4470734"
     inkscape:cx="487.7382"
     inkscape:cy="159.466"
     inkscape:window-x="0"
     inkscape:window-y="0"
     inkscape:window-maximized="0"
     inkscape:current-layer="svg1894" />
  <path
     d="m 98.03655,95.182354 h -64.8 c -5.7,0 -10.5,-4.8 -10.5,-10.5 0,-5.7 4.8,-10.5 10.5,-10.5 h 64.5 c 5.7,0 10.5,4.8 10.5,10.5 0,5.7 -4.5,10.5 -10.2,10.5 z m -64.8,-18 c -4.2,0 -7.5,3.3 -7.5,7.5 0,4.2 3.6,7.5 7.5,7.5 h 64.5 c 4.2,0 7.5,-3.3 7.5,-7.5 0,-4.2 -3.3,-7.5 -7.2,-7.5 z"
     id="path1500"
     inkscape:connector-curvature="0" />
  <path
     d="m 35.03655,86.182354 c -0.9,0 -1.5,-0.6 -1.5,-1.5 0,-0.9 0.6,-1.5 1.5,-1.5 0.9,0 1.5,0.6 1.5,1.5 0,0.9 -0.9,1.5 -1.5,1.5 z m 6,0 c -0.9,0 -1.5,-0.6 -1.5,-1.5 0,-0.9 0.6,-1.5 1.5,-1.5 0.9,0 1.5,0.6 1.5,1.5 0,0.9 -0.9,1.5 -1.5,1.5 z m 57,-9 h -64.8 c -5.7,0 -10.5,-4.8 -10.5,-10.5 0,-5.7 4.8,-10.5 10.5,-10.5 h 64.5 c 5.7,0 10.5,4.8 10.5,10.5 0,5.7 -4.5,10.5 -10.2,10.5 z m -64.8,-18 c -4.2,0 -7.5,3.3 -7.5,7.5 0,4.2 3.6,7.5 7.5,7.5 h 64.5 c 4.2,0 7.5,-3.3 7.5,-7.5 0,-4.2 -3.3,-7.5 -7.2,-7.5 z"
     id="path1502"
     inkscape:connector-curvature="0" />
  <path
     d="m 35.03655,68.182354 c -0.9,0 -1.5,-0.6 -1.5,-1.5 0,-0.9 0.6,-1.5 1.5,-1.5 0.9,0 1.5,0.6 1.5,1.5 0,0.9 -0.6,1.5 -1.5,1.5 z m 6,0 c -0.9,0 -1.5,-0.6 -1.5,-1.5 0,-0.9 0.6,-1.5 1.5,-1.5 0.9,0 1.5,0.6 1.5,1.5 0,0.9 -0.9,1.5 -1.5,1.5 z"
     id="path1504"
     inkscape:connector-curvature="0" />
  <circle
     r="3"
     cy="83.182358"
     cx="99.536545"
     id="circle1506"
     style="stroke-width:3" />
  <circle
     r="3"
     cy="65.182358"
     cx="99.536545"
     id="circle1508"
     style="stroke-width:3" />
  <path
     d="m 84.53655,50.182354 h -36.3 c -6.6,0 -12,-5.4 -12,-12 0,-6 4.5,-11.1 10.5,-12 v -0.6 c 0,-11.4 9,-20.3999997 20.1,-20.3999997 9,0 16.8,5.9999997 19.2,14.6999997 7.5,0.9 13.2,7.2 13.2,15 0.3,8.4 -6.6,15.3 -14.7,15.3 z m -36.3,-21 c -4.8,0 -8.7,3.9 -8.7,9 0,5.1 3.9,9 9,9 h 36.3 c 6.6,0 12,-5.4 12,-12.3 0,-6.6 -5.1,-11.7 -11.4,-12 -0.6,0 -1.2,-0.6 -1.5,-1.2 -2.1,-7.8 -9,-13.4999997 -17.1,-13.4999997 -9.3,0 -17.1,7.7999997 -17.1,17.3999997 v 1.8 c 0,0.6 0,0.9 -0.3,1.2 -0.3,0.3 -0.9,0.6 -1.2,0.6 z"
     id="path1510"
     inkscape:connector-curvature="0" />
  <path
     class="st0"
     d="m 133.38225,83.105901 c -0.174,0 -0.524,0 -0.7,-0.175 a 0.846,0.846 0 0 1 0,-1.225 l 23.967,-23.965997 -23.966,-23.791 a 0.846,0.846 0 0 1 0,-1.225 0.846,0.846 0 0 1 1.225,0 l 24.49,24.491 c 0.35,0.35 0.35,0.875 0,1.225 l -24.49,24.489997 c 0,0.176 -0.35,0.176 -0.525,0.176 z"
     fill="#231f20"
     id="path1862"
     inkscape:connector-curvature="0" />
  <text
     xml:space="preserve"
     style="font-size:16px;line-height:1.25;font-family:'.Arial Hebrew Desk Interface';-inkscape-font-specification:'.Arial Hebrew Desk Interface'"
     x="6.219449"
     y="114.02325"
     id="text5353"><tspan
       style="font-style:normal;font-variant:normal;font-weight:normal;font-stretch:normal;font-family:sans-serif;-inkscape-font-specification:sans-serif"
       sodipodi:role="line"
       id="tspan5351"
       x="6.219449"
       y="114.02325">1. Server sends</tspan><tspan
       style="font-style:normal;font-variant:normal;font-weight:normal;font-stretch:normal;font-family:sans-serif;-inkscape-font-specification:sans-serif"
       sodipodi:role="line"
       x="6.219449"
       y="134.56607"
       id="tspan5355">message to Push </tspan><tspan
       style="font-style:normal;font-variant:normal;font-weight:normal;font-stretch:normal;font-family:sans-serif;-inkscape-font-specification:sans-serif"
       sodipodi:role="line"
       x="6.219449"
       y="155.10887"
       id="tspan5363">service</tspan></text>
  <path
     style="stroke-width:1.21497"
     inkscape:connector-curvature="0"
     d="m 258.13951,87.357131 h -50.9854 c -9.17003,0 -16.50605,-7.606086 -16.50605,-16.29874 0,-8.330474 6.23561,-15.21217 14.67205,-15.936558 v -1.086584 c 0,-15.212158 12.47124,-27.888956 27.8769,-27.888956 12.83805,0 23.84209,8.330464 27.14329,20.282882 10.63725,1.086584 18.34008,9.77924 18.34008,20.282882 0,11.228016 -9.17004,20.645074 -20.54087,20.645074 z m -50.9854,-28.975548 c -6.96923,0 -12.83805,5.795112 -12.83805,12.676808 0,6.881682 5.86882,12.676794 12.83805,12.676794 h 50.9854 c 9.53682,0 17.23966,-7.606084 17.23966,-17.023128 0,-9.054864 -7.33603,-16.660936 -16.50608,-17.02313 -0.73358,0 -1.46719,-0.72439 -1.83399,-1.448778 -2.5676,-11.228032 -12.47125,-18.834104 -23.84209,-18.834104 -13.20485,0.362194 -24.20889,10.865824 -24.20889,24.26701 v 2.53536 c 0,0.72439 0,1.086584 -0.3668,1.448778 -0.3668,0.72439 -1.10041,0.72439 -1.46721,0.72439 z"
     id="path4517" />
  <path
     style="stroke-width:1.21497"
     inkscape:connector-curvature="0"
     d="m 283.08199,76.129101 c -0.7336,0 -1.4672,-0.724378 -1.834,-1.448764 0,-1.086584 0.3668,-1.810972 1.4672,-2.173168 8.06963,-1.448778 14.30525,-8.330474 14.30525,-16.660948 0,-9.05485 -7.33603,-16.660936 -16.50606,-17.02313 -0.73359,0 -1.4672,-0.72439 -1.834,-1.448778 -2.56761,-11.22802 -12.47126,-18.834104 -23.84209,-18.834104 -4.76842,0 -9.53684,1.448778 -13.57166,3.98414 -0.7336,0.724388 -1.834,0.362194 -2.5676,-0.362194 -0.73361,-0.72439 -0.36681,-1.810974 0.3668,-2.535362 5.13521,-2.897556 10.27044,-4.70853 16.13926,-4.70853 12.83805,0 23.84209,8.330474 27.1433,20.282882 10.63724,1.086584 18.34007,9.779252 18.34007,20.282882 0,10.141446 -7.33603,18.834116 -17.60647,20.645074 0.3668,0 0.3668,0 0,0 z m -51.67986,-0.523976 c -0.24453,0 -0.48907,-0.12073 -0.61133,-0.362194 l -2.93441,-8.813386 -8.92551,-2.897556 c -0.12227,-0.120732 -0.36681,-0.362194 -0.36681,-0.603658 0,-0.241462 0.12227,-0.482926 0.24454,-0.603656 l 29.34411,-16.9024 c 0.24453,-0.120732 0.48907,-0.120732 0.61134,0 0.24453,0.241462 0.3668,0.482926 0.3668,0.724388 l -4.89069,25.353606 c 0,0.120732 -0.12227,0.362194 -0.24454,0.362194 -0.12226,0.120732 -0.3668,0.120732 -0.48905,0 l -10.39271,-3.863408 -1.1004,7.123156 c 0,0.241464 -0.24453,0.482914 -0.61134,0.482914 z m -10.75951,-12.797524 7.94737,2.656092 c 0.12227,0 0.3668,0.241464 0.3668,0.362194 l 2.20081,6.640234 0.85587,-5.432918 c 0,-0.241462 0.12227,-0.362194 0.24454,-0.482926 0.12226,-0.120732 0.3668,-0.120732 0.48905,0 l 10.27045,3.98414 4.52387,-23.30117 z"
     id="path4519" />
  <path
     style="stroke-width:1.21497"
     inkscape:connector-curvature="0"
     d="m 232.62481,67.757593 c -0.12227,0 -0.24454,0 -0.3668,-0.120732 -0.24454,-0.241464 -0.36681,-0.603658 -0.12227,-0.84512 l 10.88177,-14.487782 -14.18298,14.004854 c -0.24454,0.241464 -0.61134,0.241464 -0.85588,0 -0.24453,-0.241462 -0.24453,-0.603656 0,-0.84512 l 20.0518,-19.920686 c 0.24454,-0.241464 0.61134,-0.241464 0.85587,0 0.24454,0.241462 0.24454,0.603656 0.12227,0.84512 l -15.89472,21.128002 c -0.12227,0.120732 -0.24454,0.241464 -0.48906,0.241464 z m -1.22268,7.847532 c -0.12226,0 -0.24453,0 -0.3668,-0.12073 -0.24453,-0.241476 -0.3668,-0.603656 -0.12227,-0.845118 l 4.89069,-6.036576 c 0.24454,-0.241464 0.61132,-0.241464 0.85587,-0.120732 0.24453,0.241464 0.3668,0.603658 0.12226,0.84512 l -4.89068,6.036574 c -0.12226,0.120732 -0.3668,0.24145 -0.48907,0.24145 z m -17.23968,-1.931688 c -0.12225,0 -0.24452,0 -0.36678,-0.120732 l -1.1004,-1.086584 c -0.24454,-0.241464 -0.24454,-0.603658 0,-0.84512 0.24453,-0.241464 0.61133,-0.241464 0.85586,0 l 1.10039,1.086584 c 0.24454,0.241462 0.24454,0.603656 0,0.84512 -0.12226,0 -0.3668,0.120732 -0.48907,0.120732 z m 9.04778,4.829246 c -0.73361,-0.120732 -1.46721,-0.241464 -2.07854,-0.482928 -0.3668,-0.12073 -0.48907,-0.482926 -0.3668,-0.724388 0.12227,-0.241464 0.48907,-0.482926 0.73361,-0.362194 0.61132,0.241462 1.22266,0.362194 1.834,0.362194 0.3668,0 0.61134,0.362194 0.48907,0.724388 0,0.241464 -0.24454,0.482928 -0.61134,0.482928 z m 2.93441,0 c -0.24454,0 -0.61134,-0.241464 -0.61134,-0.482928 0,-0.362194 0.12227,-0.603656 0.48907,-0.724388 0.24454,0 0.3668,-0.120732 0.61134,-0.120732 0.3668,-0.120732 0.61134,0.120732 0.73361,0.482926 0.12226,0.362194 -0.12227,0.603658 -0.48908,0.72439 -0.12226,0 -0.3668,0 -0.7336,0.120732 0.12227,0 0.12227,0 0,0 z m -7.4583,-1.56951 c -0.12227,0 -0.24453,0 -0.24453,-0.120732 -0.61134,-0.362194 -1.1004,-0.724378 -1.71174,-1.086572 -0.24453,-0.241462 -0.3668,-0.603658 -0.12227,-0.845118 0.24454,-0.241462 0.61134,-0.362194 0.85588,-0.120732 0.48906,0.362192 1.10039,0.724388 1.58946,0.96585 0.24454,0.120732 0.36681,0.482914 0.24454,0.845108 -0.24454,0.241464 -0.3668,0.362196 -0.61134,0.362196 z m 9.78138,0.84512 c -0.24453,0 -0.48907,-0.120732 -0.61133,-0.362194 -0.12227,-0.362196 0,-0.603658 0.3668,-0.845122 0.48907,-0.241462 0.85586,-0.362194 1.34493,-0.603656 0.24453,-0.120732 0.61134,-0.120732 0.85587,0.241462 0.12227,0.241464 0.12227,0.603658 -0.24453,0.84512 l -1.4672,0.72439 z"
     id="path4521" />
  <text
     xml:space="preserve"
     style="font-size:16px;line-height:1.25;font-family:'.Arial Hebrew Desk Interface';-inkscape-font-specification:'.Arial Hebrew Desk Interface'"
     x="158.25044"
     y="113.3322"
     id="text5399"><tspan
       style="font-style:normal;font-variant:normal;font-weight:normal;font-stretch:normal;font-family:sans-serif;-inkscape-font-specification:sans-serif"
       sodipodi:role="line"
       x="158.25044"
       y="113.3322"
       id="tspan5401">2. Service verifies</tspan><tspan
       style="font-style:normal;font-variant:normal;font-weight:normal;font-stretch:normal;font-family:sans-serif;-inkscape-font-specification:sans-serif"
       sodipodi:role="line"
       x="158.25044"
       y="133.87502"
       id="tspan5403"><tspan
   id="tspan1604"
   style="font-style:normal;font-variant:normal;font-weight:normal;font-stretch:normal;font-size:16px;font-family:sans-serif;-inkscape-font-specification:sans-serif;font-variant-ligatures:normal;font-variant-caps:normal;font-variant-numeric:normal;font-variant-east-asian:normal">message</tspan> and creates</tspan><tspan
       style="font-style:normal;font-variant:normal;font-weight:normal;font-stretch:normal;font-family:sans-serif;-inkscape-font-specification:sans-serif"
       sodipodi:role="line"
       x="158.25044"
       y="154.41782"
       id="tspan5665">notification</tspan><tspan
       style="font-style:normal;font-variant:normal;font-weight:normal;font-stretch:normal;font-family:sans-serif;-inkscape-font-specification:sans-serif"
       sodipodi:role="line"
       x="158.25044"
       y="174.96063"
       id="tspan5415" /></text>
  <g
     transform="matrix(2.5600013,0,0,2.5600013,358.94444,11.356108)"
     id="XMLID_49_">
    <g
       id="XMLID_535_">
      <path
         id="XMLID_522_"
         d="M 20.5,30 H 9.5 C 7.6,30 6,28.4 6,26.5 V 3.5 C 6,1.6 7.6,0 9.5,0 h 11 C 22.4,0 24,1.6 24,3.5 v 23 C 24,28.4 22.4,30 20.5,30 Z M 9.5,1 C 8.1,1 7,2.1 7,3.5 v 23 C 7,27.9 8.1,29 9.5,29 h 11 C 21.9,29 23,27.9 23,26.5 V 3.5 C 23,2.1 21.9,1 20.5,1 Z"
         inkscape:connector-curvature="0" />
    </g>
    <g
       id="XMLID_50_">
      <path
         id="XMLID_521_"
         d="M 23.5,5 H 6.5 C 6.2,5 6,4.8 6,4.5 6,4.2 6.2,4 6.5,4 h 17 C 23.8,4 24,4.2 24,4.5 24,4.8 23.8,5 23.5,5 Z"
         inkscape:connector-curvature="0" />
    </g>
    <g
       id="XMLID_51_">
      <path
         id="XMLID_520_"
         d="M 23,25 H 7 C 6.7,25 6.5,24.8 6.5,24.5 6.5,24.2 6.7,24 7,24 h 16 c 0.3,0 0.5,0.2 0.5,0.5 0,0.3 -0.2,0.5 -0.5,0.5 z"
         inkscape:connector-curvature="0" />
    </g>
    <g
       id="XMLID_53_">
      <path
         id="XMLID_519_"
         d="m 17.5,3 h -5 C 12.2,3 12,2.8 12,2.5 12,2.2 12.2,2 12.5,2 h 5 C 17.8,2 18,2.2 18,2.5 18,2.8 17.8,3 17.5,3 Z"
         inkscape:connector-curvature="0" />
    </g>
    <g
       id="XMLID_54_">
      <path
         id="XMLID_518_"
         d="M 20.5,3 C 20.2,3 20,2.8 20,2.5 20,2.2 20.2,2 20.5,2 20.8,2 21,2.2 21,2.5 21,2.8 20.8,3 20.5,3 Z"
         inkscape:connector-curvature="0" />
    </g>
    <g
       id="XMLID_2_">
      <circle
         id="XMLID_517_"
         cx="15"
         cy="27"
         r="1" />
    </g>
  </g>
  <path
     inkscape:connector-curvature="0"
     id="path1862-7"
     fill="#231f20"
     d="m 327.83855,81.297261 c -0.174,0 -0.524,0 -0.7,-0.175 a 0.846,0.846 0 0 1 0,-1.225 l 23.967,-23.966 -23.966,-23.791 a 0.846,0.846 0 0 1 0,-1.225 0.846,0.846 0 0 1 1.225,0 l 24.49,24.491 c 0.35,0.35 0.35,0.875 0,1.225 l -24.49,24.49 c 0,0.176 -0.35,0.176 -0.525,0.176 z"
     class="st0" />
  <text
     xml:space="preserve"
     style="font-style:normal;font-variant:normal;font-weight:normal;font-stretch:normal;font-size:16px;line-height:1.25;font-family:sans-serif;-inkscape-font-specification:'sans-serif Normal';font-variant-ligatures:normal;font-variant-caps:normal;font-variant-numeric:normal;font-variant-east-asian:normal"
     x="337.23239"
     y="114.02325"
     id="text5669"><tspan
       sodipodi:role="line"
       id="tspan5667"
       x="337.23239"
       y="114.02325">3. Notification</tspan><tspan
       sodipodi:role="line"
       x="337.23239"
       y="134.02325"
       id="tspan5673">arrives to device</tspan></text>
</svg>
