<?xml version="1.0" encoding="UTF-8" standalone="no"?>
<svg
   xmlns:dc="http://purl.org/dc/elements/1.1/"
   xmlns:cc="http://creativecommons.org/ns#"
   xmlns:rdf="http://www.w3.org/1999/02/22-rdf-syntax-ns#"
   xmlns:svg="http://www.w3.org/2000/svg"
   xmlns="http://www.w3.org/2000/svg"
   xmlns:sodipodi="http://sodipodi.sourceforge.net/DTD/sodipodi-0.dtd"
   xmlns:inkscape="http://www.inkscape.org/namespaces/inkscape"
   inkscape:version="1.0beta2 (2b71d25, 2019-12-03)"
   sodipodi:docname="send-notification-1.svg"
   id="svg1894"
   version="1.1"
   height="160"
   width="160"
   viewBox="0 0 160.00006 160.0001">
  <metadata
     id="metadata1900">
    <rdf:RDF>
      <cc:Work
         rdf:about="">
        <dc:format>image/svg+xml</dc:format>
        <dc:type
           rdf:resource="http://purl.org/dc/dcmitype/StillImage" />
        <dc:title></dc:title>
      </cc:Work>
    </rdf:RDF>
  </metadata>
  <defs
     id="defs1898" />
  <sodipodi:namedview
     inkscape:current-layer="svg1894"
     inkscape:window-maximized="0"
     inkscape:window-y="23"
     inkscape:window-x="0"
     inkscape:cy="80"
     inkscape:cx="399.15398"
     inkscape:zoom="2.15125"
     showgrid="false"
     id="namedview1896"
     inkscape:window-height="1035"
     inkscape:window-width="1920"
     inkscape:pageshadow="2"
     inkscape:pageopacity="0"
     guidetolerance="10"
     gridtolerance="10"
     objecttolerance="10"
     borderopacity="1"
     inkscape:document-rotation="0"
     bordercolor="#666666"
     pagecolor="#ffffff" />
  <path
     style="stroke-width:0.938573"
     inkscape:connector-curvature="0"
     id="path1500"
     d="M 82.077903,87.580805 H 21.258351 c -5.349868,0 -9.85502,-4.505152 -9.85502,-9.85502 0,-5.349868 4.505152,-9.85502 9.85502,-9.85502 h 60.53798 c 5.349868,0 9.85502,4.505152 9.85502,9.85502 0,5.349868 -4.22358,9.85502 -9.573448,9.85502 z M 21.258351,70.686485 c -3.942008,0 -7.0393,3.097292 -7.0393,7.0393 0,3.942008 3.378864,7.0393 7.0393,7.0393 h 60.53798 c 3.942008,0 7.0393,-3.097292 7.0393,-7.0393 0,-3.942008 -3.097292,-7.0393 -6.757728,-7.0393 z" />
  <path
     style="stroke-width:0.938573"
     inkscape:connector-curvature="0"
     id="path1502"
     d="m 22.947783,79.133645 c -0.844716,0 -1.40786,-0.563144 -1.40786,-1.40786 0,-0.844716 0.563144,-1.40786 1.40786,-1.40786 0.844716,0 1.40786,0.563144 1.40786,1.40786 0,0.844716 -0.844716,1.40786 -1.40786,1.40786 z m 5.63144,0 c -0.844716,0 -1.40786,-0.563144 -1.40786,-1.40786 0,-0.844716 0.563144,-1.40786 1.40786,-1.40786 0.844716,0 1.40786,0.563144 1.40786,1.40786 0,0.844716 -0.844716,1.40786 -1.40786,1.40786 z m 53.49868,-8.44716 H 21.258351 c -5.349868,0 -9.85502,-4.505152 -9.85502,-9.85502 0,-5.349868 4.505152,-9.85502 9.85502,-9.85502 h 60.53798 c 5.349868,0 9.85502,4.505152 9.85502,9.85502 0,5.349868 -4.22358,9.85502 -9.573448,9.85502 z M 21.258351,53.792165 c -3.942008,0 -7.0393,3.097292 -7.0393,7.0393 0,3.942008 3.378864,7.0393 7.0393,7.0393 h 60.53798 c 3.942008,0 7.0393,-3.097292 7.0393,-7.0393 0,-3.942008 -3.097292,-7.0393 -6.757728,-7.0393 z" />
  <path
     style="stroke-width:0.938573"
     inkscape:connector-curvature="0"
     id="path1504"
     d="m 22.947783,62.239325 c -0.844716,0 -1.40786,-0.563144 -1.40786,-1.40786 0,-0.844716 0.563144,-1.40786 1.40786,-1.40786 0.844716,0 1.40786,0.563144 1.40786,1.40786 0,0.844716 -0.563144,1.40786 -1.40786,1.40786 z m 5.63144,0 c -0.844716,0 -1.40786,-0.563144 -1.40786,-1.40786 0,-0.844716 0.563144,-1.40786 1.40786,-1.40786 0.844716,0 1.40786,0.563144 1.40786,1.40786 0,0.844716 -0.844716,1.40786 -1.40786,1.40786 z" />
  <circle
     style="stroke-width:2.81572"
     id="circle1506"
     cx="83.485756"
     cy="76.317932"
     r="2.8157201" />
  <circle
     style="stroke-width:2.81572"
     id="circle1508"
     cx="83.485756"
     cy="59.423607"
     r="2.8157201" />
  <path
     style="stroke-width:0.938573"
     inkscape:connector-curvature="0"
     id="path1510"
     d="M 69.407163,45.345005 H 35.336951 c -6.194584,0 -11.26288,-5.068296 -11.26288,-11.26288 0,-5.63144 4.22358,-10.418164 9.85502,-11.26288 v -0.563144 c 0,-10.699736 8.44716,-19.1468965 18.865324,-19.1468965 8.44716,0 15.768032,5.63144 18.020608,13.7970285 7.0393,0.844716 12.389168,6.757728 12.389168,14.0786 0.281572,7.884016 -6.194584,14.360172 -13.797028,14.360172 z M 35.336951,25.634965 c -4.505152,0 -8.165588,3.660436 -8.165588,8.44716 0,4.786724 3.660436,8.44716 8.44716,8.44716 h 34.070212 c 6.194584,0 11.26288,-5.068296 11.26288,-11.544452 0,-6.194584 -4.786724,-10.981308 -10.699736,-11.26288 -0.563144,0 -1.126288,-0.563144 -1.40786,-1.126288 -1.971004,-7.320872 -8.44716,-12.6707405 -16.049604,-12.6707405 -8.728732,0 -16.049604,7.3208725 -16.049604,16.3311765 v 1.689432 c 0,0.563144 0,0.844716 -0.281572,1.126288 -0.281572,0.281572 -0.844716,0.563144 -1.126288,0.563144 z" />
  <path
     inkscape:connector-curvature="0"
     id="path1862"
     fill="#231f20"
     d="m 110.5776,76.195402 c -0.174,0 -0.524,0 -0.7,-0.175 a 0.846,0.846 0 0 1 0,-1.225 l 23.967,-23.965997 -23.966,-23.791 a 0.846,0.846 0 0 1 0,-1.225 0.846,0.846 0 0 1 1.225,0 l 24.49,24.491 c 0.35,0.35 0.35,0.875 0,1.225 l -24.49,24.489997 c 0,0.176 -0.35,0.176 -0.525,0.176 z"
     class="st0" />
  <text
     id="text5353"
     y="107.11275"
     x="3.4552493"
     style="font-size:16px;line-height:1.25;font-family:'.Arial Hebrew Desk Interface';-inkscape-font-specification:'.Arial Hebrew Desk Interface'"
     xml:space="preserve"><tspan
       y="107.11275"
       x="3.4552493"
       id="tspan5351"
       sodipodi:role="line"
       style="font-style:normal;font-variant:normal;font-weight:normal;font-stretch:normal;font-family:sans-serif;-inkscape-font-specification:sans-serif">1. Server sends</tspan><tspan
       id="tspan5355"
       y="127.65556"
       x="3.4552493"
       sodipodi:role="line"
       style="font-style:normal;font-variant:normal;font-weight:normal;font-stretch:normal;font-family:sans-serif;-inkscape-font-specification:sans-serif">message to Push </tspan><tspan
       id="tspan5363"
       y="148.19836"
       x="3.4552493"
       sodipodi:role="line"
       style="font-style:normal;font-variant:normal;font-weight:normal;font-stretch:normal;font-family:sans-serif;-inkscape-font-specification:sans-serif">service</tspan></text>
</svg>
