<?xml version="1.0" encoding="UTF-8" standalone="no"?>
<svg
   xmlns:dc="http://purl.org/dc/elements/1.1/"
   xmlns:cc="http://creativecommons.org/ns#"
   xmlns:rdf="http://www.w3.org/1999/02/22-rdf-syntax-ns#"
   xmlns:svg="http://www.w3.org/2000/svg"
   xmlns="http://www.w3.org/2000/svg"
   xmlns:sodipodi="http://sodipodi.sourceforge.net/DTD/sodipodi-0.dtd"
   xmlns:inkscape="http://www.inkscape.org/namespaces/inkscape"
   inkscape:version="1.0beta2 (2b71d25, 2019-12-03)"
   sodipodi:docname="send-notification-2.svg"
   id="svg1894"
   version="1.1"
   height="160"
   width="160"
   viewBox="0 0 160.00006 160.0001">
  <metadata
     id="metadata1900">
    <rdf:RDF>
      <cc:Work
         rdf:about="">
        <dc:format>image/svg+xml</dc:format>
        <dc:type
           rdf:resource="http://purl.org/dc/dcmitype/StillImage" />
        <dc:title></dc:title>
      </cc:Work>
    </rdf:RDF>
  </metadata>
  <defs
     id="defs1898" />
  <sodipodi:namedview
     inkscape:current-layer="svg1894"
     inkscape:window-maximized="0"
     inkscape:window-y="23"
     inkscape:window-x="0"
     inkscape:cy="80"
     inkscape:cx="399.15398"
     inkscape:zoom="2.15125"
     showgrid="false"
     id="namedview1896"
     inkscape:window-height="1035"
     inkscape:window-width="1920"
     inkscape:pageshadow="2"
     inkscape:pageopacity="0"
     guidetolerance="10"
     gridtolerance="10"
     objecttolerance="10"
     borderopacity="1"
     inkscape:document-rotation="0"
     bordercolor="#666666"
     pagecolor="#ffffff" />
  <path
     id="path4517"
     d="m 75.49002,84.391604 h -50.9854 c -9.17003,0 -16.5060505,-7.606086 -16.5060505,-16.29874 0,-8.330474 6.2356105,-15.21217 14.6720505,-15.936558 v -1.086584 c 0,-15.212158 12.47124,-27.888956 27.8769,-27.888956 12.83805,0 23.84209,8.330464 27.14329,20.282882 10.63725,1.086584 18.34008,9.77924 18.34008,20.282882 0,11.228016 -9.17004,20.645074 -20.54087,20.645074 z M 24.50462,55.416056 c -6.96923,0 -12.83805,5.795112 -12.83805,12.676808 0,6.881682 5.86882,12.676794 12.83805,12.676794 h 50.9854 c 9.53682,0 17.23966,-7.606084 17.23966,-17.023128 0,-9.054864 -7.33603,-16.660936 -16.50608,-17.02313 -0.73358,0 -1.46719,-0.72439 -1.83399,-1.448778 C 71.82201,34.04659 61.91836,26.440518 50.54752,26.440518 37.34267,26.802712 26.33863,37.306342 26.33863,50.707528 v 2.53536 c 0,0.72439 0,1.086584 -0.3668,1.448778 -0.3668,0.72439 -1.10041,0.72439 -1.46721,0.72439 z"
     inkscape:connector-curvature="0"
     style="stroke-width:1.21497" />
  <path
     id="path4519"
     d="m 100.4325,73.163574 c -0.7336,0 -1.4672,-0.724378 -1.834,-1.448764 0,-1.086584 0.3668,-1.810972 1.4672,-2.173168 8.06963,-1.448778 14.30525,-8.330474 14.30525,-16.660948 0,-9.05485 -7.33603,-16.660936 -16.50606,-17.02313 -0.73359,0 -1.4672,-0.72439 -1.834,-1.448778 C 93.46328,23.180766 83.55963,15.574682 72.1888,15.574682 c -4.76842,0 -9.53684,1.448778 -13.57166,3.98414 -0.7336,0.724388 -1.834,0.362194 -2.5676,-0.362194 -0.73361,-0.72439 -0.36681,-1.810974 0.3668,-2.535362 5.13521,-2.897556 10.27044,-4.70853 16.13926,-4.70853 12.83805,0 23.84209,8.330474 27.1433,20.282882 10.63724,1.086584 18.34007,9.779252 18.34007,20.282882 0,10.141446 -7.33603,18.834116 -17.60647,20.645074 0.3668,0 0.3668,0 0,0 z M 48.75264,72.639598 c -0.24453,0 -0.48907,-0.12073 -0.61133,-0.362194 L 45.2069,63.464018 36.28139,60.566462 c -0.12227,-0.120732 -0.36681,-0.362194 -0.36681,-0.603658 0,-0.241462 0.12227,-0.482926 0.24454,-0.603656 l 29.34411,-16.9024 c 0.24453,-0.120732 0.48907,-0.120732 0.61134,0 0.24453,0.241462 0.3668,0.482926 0.3668,0.724388 l -4.89069,25.353606 c 0,0.120732 -0.12227,0.362194 -0.24454,0.362194 -0.12226,0.120732 -0.3668,0.120732 -0.48905,0 l -10.39271,-3.863408 -1.1004,7.123156 c 0,0.241464 -0.24453,0.482914 -0.61134,0.482914 z M 37.99313,59.842074 45.9405,62.498166 c 0.12227,0 0.3668,0.241464 0.3668,0.362194 l 2.20081,6.640234 0.85587,-5.432918 c 0,-0.241462 0.12227,-0.362194 0.24454,-0.482926 0.12226,-0.120732 0.3668,-0.120732 0.48905,0 l 10.27045,3.98414 4.52387,-23.30117 z"
     inkscape:connector-curvature="0"
     style="stroke-width:1.21497" />
  <path
     id="path4521"
     d="m 49.97532,64.792066 c -0.12227,0 -0.24454,0 -0.3668,-0.120732 -0.24454,-0.241464 -0.36681,-0.603658 -0.12227,-0.84512 L 60.36802,49.338432 46.18504,63.343286 c -0.24454,0.241464 -0.61134,0.241464 -0.85588,0 -0.24453,-0.241462 -0.24453,-0.603656 0,-0.84512 L 65.38096,42.57748 c 0.24454,-0.241464 0.61134,-0.241464 0.85587,0 0.24454,0.241462 0.24454,0.603656 0.12227,0.84512 L 50.46438,64.550602 c -0.12227,0.120732 -0.24454,0.241464 -0.48906,0.241464 z m -1.22268,7.847532 c -0.12226,0 -0.24453,0 -0.3668,-0.12073 -0.24453,-0.241476 -0.3668,-0.603656 -0.12227,-0.845118 l 4.89069,-6.036576 c 0.24454,-0.241464 0.61132,-0.241464 0.85587,-0.120732 0.24453,0.241464 0.3668,0.603658 0.12226,0.84512 l -4.89068,6.036574 c -0.12226,0.120732 -0.3668,0.24145 -0.48907,0.24145 z M 31.51296,70.70791 c -0.12225,0 -0.24452,0 -0.36678,-0.120732 l -1.1004,-1.086584 c -0.24454,-0.241464 -0.24454,-0.603658 0,-0.84512 0.24453,-0.241464 0.61133,-0.241464 0.85586,0 l 1.10039,1.086584 c 0.24454,0.241462 0.24454,0.603656 0,0.84512 -0.12226,0 -0.3668,0.120732 -0.48907,0.120732 z m 9.04778,4.829246 c -0.73361,-0.120732 -1.46721,-0.241464 -2.07854,-0.482928 -0.3668,-0.12073 -0.48907,-0.482926 -0.3668,-0.724388 0.12227,-0.241464 0.48907,-0.482926 0.73361,-0.362194 0.61132,0.241462 1.22266,0.362194 1.834,0.362194 0.3668,0 0.61134,0.362194 0.48907,0.724388 0,0.241464 -0.24454,0.482928 -0.61134,0.482928 z m 2.93441,0 c -0.24454,0 -0.61134,-0.241464 -0.61134,-0.482928 0,-0.362194 0.12227,-0.603656 0.48907,-0.724388 0.24454,0 0.3668,-0.120732 0.61134,-0.120732 0.3668,-0.120732 0.61134,0.120732 0.73361,0.482926 0.12226,0.362194 -0.12227,0.603658 -0.48908,0.72439 -0.12226,0 -0.3668,0 -0.7336,0.120732 0.12227,0 0.12227,0 0,0 z m -7.4583,-1.56951 c -0.12227,0 -0.24453,0 -0.24453,-0.120732 -0.61134,-0.362194 -1.1004,-0.724378 -1.71174,-1.086572 -0.24453,-0.241462 -0.3668,-0.603658 -0.12227,-0.845118 0.24454,-0.241462 0.61134,-0.362194 0.85588,-0.120732 0.48906,0.362192 1.10039,0.724388 1.58946,0.96585 0.24454,0.120732 0.36681,0.482914 0.24454,0.845108 -0.24454,0.241464 -0.3668,0.362196 -0.61134,0.362196 z m 9.78138,0.84512 c -0.24453,0 -0.48907,-0.120732 -0.61133,-0.362194 -0.12227,-0.362196 0,-0.603658 0.3668,-0.845122 0.48907,-0.241462 0.85586,-0.362194 1.34493,-0.603656 0.24453,-0.120732 0.61134,-0.120732 0.85587,0.241462 0.12227,0.241464 0.12227,0.603658 -0.24453,0.84512 l -1.4672,0.72439 z"
     inkscape:connector-curvature="0"
     style="stroke-width:1.21497" />
  <text
     id="text5399"
     y="109.67562"
     x="2.5518961"
     style="font-size:16px;line-height:1.25;font-family:'.Arial Hebrew Desk Interface';-inkscape-font-specification:'.Arial Hebrew Desk Interface'"
     xml:space="preserve"><tspan
       id="tspan5403"
       y="109.67562"
       x="2.5518961"
       sodipodi:role="line"
       style="font-style:normal;font-variant:normal;font-weight:normal;font-stretch:normal;font-family:sans-serif;-inkscape-font-specification:sans-serif">2. Service creates</tspan><tspan
       id="tspan5665"
       y="130.21843"
       x="2.5518961"
       sodipodi:role="line"
       style="font-style:normal;font-variant:normal;font-weight:normal;font-stretch:normal;font-family:sans-serif;-inkscape-font-specification:sans-serif">notification</tspan><tspan
       id="tspan5415"
       y="150.76125"
       x="2.5518961"
       sodipodi:role="line"
       style="font-style:normal;font-variant:normal;font-weight:normal;font-stretch:normal;font-family:sans-serif;-inkscape-font-specification:sans-serif" /></text>
  <path
     class="st0"
     d="m 124.45756,79.022784 c -0.174,0 -0.524,0 -0.7,-0.175 a 0.846,0.846 0 0 1 0,-1.225 l 23.967,-23.966 -23.966,-23.791 a 0.846,0.846 0 0 1 0,-1.225 0.846,0.846 0 0 1 1.225,0 l 24.49,24.491 c 0.35,0.35 0.35,0.875 0,1.225 l -24.49,24.49 c 0,0.176 -0.35,0.176 -0.525,0.176 z"
     fill="#231f20"
     id="path1862-7"
     inkscape:connector-curvature="0" />
</svg>
