<?xml version="1.0" encoding="UTF-8" standalone="no"?>
<svg
   xmlns:dc="http://purl.org/dc/elements/1.1/"
   xmlns:cc="http://creativecommons.org/ns#"
   xmlns:rdf="http://www.w3.org/1999/02/22-rdf-syntax-ns#"
   xmlns:svg="http://www.w3.org/2000/svg"
   xmlns="http://www.w3.org/2000/svg"
   xmlns:sodipodi="http://sodipodi.sourceforge.net/DTD/sodipodi-0.dtd"
   xmlns:inkscape="http://www.inkscape.org/namespaces/inkscape"
   viewBox="0 0 800.00029 170.00009"
   width="800"
   height="170"
   version="1.1"
   id="svg1894"
   sodipodi:docname="send-notification1.svg"
   inkscape:version="1.0beta2 (2b71d25, 2019-12-03)">
  <metadata
     id="metadata1900">
    <rdf:RDF>
      <cc:Work
         rdf:about="">
        <dc:format>image/svg+xml</dc:format>
        <dc:type
           rdf:resource="http://purl.org/dc/dcmitype/StillImage" />
        <dc:title></dc:title>
      </cc:Work>
    </rdf:RDF>
  </metadata>
  <defs
     id="defs1898" />
  <sodipodi:namedview
     pagecolor="#ffffff"
     bordercolor="#666666"
     inkscape:document-rotation="0"
     borderopacity="1"
     objecttolerance="10"
     gridtolerance="10"
     guidetolerance="10"
     inkscape:pageopacity="0"
     inkscape:pageshadow="2"
     inkscape:window-width="1920"
     inkscape:window-height="1080"
     id="namedview1896"
     showgrid="false"
     inkscape:zoom="1.4470734"
     inkscape:cx="487.7382"
     inkscape:cy="159.466"
     inkscape:window-x="0"
     inkscape:window-y="0"
     inkscape:window-maximized="0"
     inkscape:current-layer="svg1894" />
  <path
     d="m 98.03655,95.182354 h -64.8 c -5.7,0 -10.5,-4.8 -10.5,-10.5 0,-5.7 4.8,-10.5 10.5,-10.5 h 64.5 c 5.7,0 10.5,4.8 10.5,10.5 0,5.7 -4.5,10.5 -10.2,10.5 z m -64.8,-18 c -4.2,0 -7.5,3.3 -7.5,7.5 0,4.2 3.6,7.5 7.5,7.5 h 64.5 c 4.2,0 7.5,-3.3 7.5,-7.5 0,-4.2 -3.3,-7.5 -7.2,-7.5 z"
     id="path1500"
     inkscape:connector-curvature="0" />
  <path
     d="m 35.03655,86.182354 c -0.9,0 -1.5,-0.6 -1.5,-1.5 0,-0.9 0.6,-1.5 1.5,-1.5 0.9,0 1.5,0.6 1.5,1.5 0,0.9 -0.9,1.5 -1.5,1.5 z m 6,0 c -0.9,0 -1.5,-0.6 -1.5,-1.5 0,-0.9 0.6,-1.5 1.5,-1.5 0.9,0 1.5,0.6 1.5,1.5 0,0.9 -0.9,1.5 -1.5,1.5 z m 57,-9 h -64.8 c -5.7,0 -10.5,-4.8 -10.5,-10.5 0,-5.7 4.8,-10.5 10.5,-10.5 h 64.5 c 5.7,0 10.5,4.8 10.5,10.5 0,5.7 -4.5,10.5 -10.2,10.5 z m -64.8,-18 c -4.2,0 -7.5,3.3 -7.5,7.5 0,4.2 3.6,7.5 7.5,7.5 h 64.5 c 4.2,0 7.5,-3.3 7.5,-7.5 0,-4.2 -3.3,-7.5 -7.2,-7.5 z"
     id="path1502"
     inkscape:connector-curvature="0" />
  <path
     d="m 35.03655,68.182354 c -0.9,0 -1.5,-0.6 -1.5,-1.5 0,-0.9 0.6,-1.5 1.5,-1.5 0.9,0 1.5,0.6 1.5,1.5 0,0.9 -0.6,1.5 -1.5,1.5 z m 6,0 c -0.9,0 -1.5,-0.6 -1.5,-1.5 0,-0.9 0.6,-1.5 1.5,-1.5 0.9,0 1.5,0.6 1.5,1.5 0,0.9 -0.9,1.5 -1.5,1.5 z"
     id="path1504"
     inkscape:connector-curvature="0" />
  <circle
     r="3"
     cy="83.182358"
     cx="99.536545"
     id="circle1506"
     style="stroke-width:3" />
  <circle
     r="3"
     cy="65.182358"
     cx="99.536545"
     id="circle1508"
     style="stroke-width:3" />
  <path
     d="m 84.53655,50.182354 h -36.3 c -6.6,0 -12,-5.4 -12,-12 0,-6 4.5,-11.1 10.5,-12 v -0.6 c 0,-11.4 9,-20.3999997 20.1,-20.3999997 9,0 16.8,5.9999997 19.2,14.6999997 7.5,0.9 13.2,7.2 13.2,15 0.3,8.4 -6.6,15.3 -14.7,15.3 z m -36.3,-21 c -4.8,0 -8.7,3.9 -8.7,9 0,5.1 3.9,9 9,9 h 36.3 c 6.6,0 12,-5.4 12,-12.3 0,-6.6 -5.1,-11.7 -11.4,-12 -0.6,0 -1.2,-0.6 -1.5,-1.2 -2.1,-7.8 -9,-13.4999997 -17.1,-13.4999997 -9.3,0 -17.1,7.7999997 -17.1,17.3999997 v 1.8 c 0,0.6 0,0.9 -0.3,1.2 -0.3,0.3 -0.9,0.6 -1.2,0.6 z"
     id="path1510"
     inkscape:connector-curvature="0" />
  <text
     xml:space="preserve"
     style="font-size:16px;line-height:1.25;font-family:'.Arial Hebrew Desk Interface';-inkscape-font-specification:'.Arial Hebrew Desk Interface'"
     x="6.219449"
     y="114.02325"
     id="text5353"><tspan
       style="font-style:normal;font-variant:normal;font-weight:normal;font-stretch:normal;font-family:sans-serif;-inkscape-font-specification:sans-serif"
       sodipodi:role="line"
       id="tspan5351"
       x="6.219449"
       y="114.02325">1. Server sends</tspan><tspan
       style="font-style:normal;font-variant:normal;font-weight:normal;font-stretch:normal;font-family:sans-serif;-inkscape-font-specification:sans-serif"
       sodipodi:role="line"
       x="6.219449"
       y="134.56607"
       id="tspan5355">message to Push </tspan><tspan
       style="font-style:normal;font-variant:normal;font-weight:normal;font-stretch:normal;font-family:sans-serif;-inkscape-font-specification:sans-serif"
       sodipodi:role="line"
       x="6.219449"
       y="155.10887"
       id="tspan5363">service</tspan></text>
</svg>
