<?xml version="1.0" encoding="UTF-8" standalone="no"?>
<svg
   xmlns:dc="http://purl.org/dc/elements/1.1/"
   xmlns:cc="http://creativecommons.org/ns#"
   xmlns:rdf="http://www.w3.org/1999/02/22-rdf-syntax-ns#"
   xmlns:svg="http://www.w3.org/2000/svg"
   xmlns="http://www.w3.org/2000/svg"
   xmlns:sodipodi="http://sodipodi.sourceforge.net/DTD/sodipodi-0.dtd"
   xmlns:inkscape="http://www.inkscape.org/namespaces/inkscape"
   inkscape:version="1.0beta2 (2b71d25, 2019-12-03)"
   sodipodi:docname="send-notification-3.svg"
   id="svg1894"
   version="1.1"
   height="160"
   width="160"
   viewBox="0 0 160.00006 160.0001">
  <metadata
     id="metadata1900">
    <rdf:RDF>
      <cc:Work
         rdf:about="">
        <dc:format>image/svg+xml</dc:format>
        <dc:type
           rdf:resource="http://purl.org/dc/dcmitype/StillImage" />
        <dc:title></dc:title>
      </cc:Work>
    </rdf:RDF>
  </metadata>
  <defs
     id="defs1898" />
  <sodipodi:namedview
     inkscape:current-layer="svg1894"
     inkscape:window-maximized="0"
     inkscape:window-y="23"
     inkscape:window-x="0"
     inkscape:cy="80"
     inkscape:cx="399.15398"
     inkscape:zoom="2.15125"
     showgrid="false"
     id="namedview1896"
     inkscape:window-height="1035"
     inkscape:window-width="1920"
     inkscape:pageshadow="2"
     inkscape:pageopacity="0"
     guidetolerance="10"
     gridtolerance="10"
     objecttolerance="10"
     borderopacity="1"
     inkscape:document-rotation="0"
     bordercolor="#666666"
     pagecolor="#ffffff" />
  <g
     id="XMLID_49_"
     transform="matrix(2.5600013,0,0,2.5600013,3.4966107,11.167219)">
    <g
       id="XMLID_535_">
      <path
         inkscape:connector-curvature="0"
         d="M 20.5,30 H 9.5 C 7.6,30 6,28.4 6,26.5 V 3.5 C 6,1.6 7.6,0 9.5,0 h 11 C 22.4,0 24,1.6 24,3.5 v 23 C 24,28.4 22.4,30 20.5,30 Z M 9.5,1 C 8.1,1 7,2.1 7,3.5 v 23 C 7,27.9 8.1,29 9.5,29 h 11 C 21.9,29 23,27.9 23,26.5 V 3.5 C 23,2.1 21.9,1 20.5,1 Z"
         id="XMLID_522_" />
    </g>
    <g
       id="XMLID_50_">
      <path
         inkscape:connector-curvature="0"
         d="M 23.5,5 H 6.5 C 6.2,5 6,4.8 6,4.5 6,4.2 6.2,4 6.5,4 h 17 C 23.8,4 24,4.2 24,4.5 24,4.8 23.8,5 23.5,5 Z"
         id="XMLID_521_" />
    </g>
    <g
       id="XMLID_51_">
      <path
         inkscape:connector-curvature="0"
         d="M 23,25 H 7 C 6.7,25 6.5,24.8 6.5,24.5 6.5,24.2 6.7,24 7,24 h 16 c 0.3,0 0.5,0.2 0.5,0.5 0,0.3 -0.2,0.5 -0.5,0.5 z"
         id="XMLID_520_" />
    </g>
    <g
       id="XMLID_53_">
      <path
         inkscape:connector-curvature="0"
         d="m 17.5,3 h -5 C 12.2,3 12,2.8 12,2.5 12,2.2 12.2,2 12.5,2 h 5 C 17.8,2 18,2.2 18,2.5 18,2.8 17.8,3 17.5,3 Z"
         id="XMLID_519_" />
    </g>
    <g
       id="XMLID_54_">
      <path
         inkscape:connector-curvature="0"
         d="M 20.5,3 C 20.2,3 20,2.8 20,2.5 20,2.2 20.2,2 20.5,2 20.8,2 21,2.2 21,2.5 21,2.8 20.8,3 20.5,3 Z"
         id="XMLID_518_" />
    </g>
    <g
       id="XMLID_2_">
      <circle
         r="1"
         cy="27"
         cx="15"
         id="XMLID_517_" />
    </g>
  </g>
  <path
     class="st0"
     d="m 100.92602,78.344165 c -0.174,0 -0.524,0 -0.7,-0.175 a 0.846,0.846 0 0 1 0,-1.225 l 23.967,-23.96599 -23.966,-23.791 a 0.846,0.846 0 0 1 0,-1.225 0.846,0.846 0 0 1 1.225,0 l 24.49,24.491 c 0.35,0.35 0.35,0.875 0,1.225 l -24.49,24.48999 c 0,0.176 -0.35,0.176 -0.525,0.176 z"
     fill="#231f20"
     id="path1862-1"
     inkscape:connector-curvature="0" />
  <text
     id="text5669"
     y="111.76121"
     x="4.5892363"
     style="font-style:normal;font-variant:normal;font-weight:normal;font-stretch:normal;font-size:16px;line-height:1.25;font-family:sans-serif;-inkscape-font-specification:'sans-serif Normal';font-variant-ligatures:normal;font-variant-caps:normal;font-variant-numeric:normal;font-variant-east-asian:normal"
     xml:space="preserve"><tspan
       y="111.76121"
       x="4.5892363"
       id="tspan5667"
       sodipodi:role="line">3. Notification</tspan><tspan
       id="tspan5673"
       y="131.7612"
       x="4.5892363"
       sodipodi:role="line">arrives to device</tspan></text>
</svg>
